<?xml version="1.0" encoding="UTF-8" standalone="no"?>
<svg
   xmlns:dc="http://purl.org/dc/elements/1.1/"
   xmlns:cc="http://creativecommons.org/ns#"
   xmlns:rdf="http://www.w3.org/1999/02/22-rdf-syntax-ns#"
   xmlns:svg="http://www.w3.org/2000/svg"
   xmlns="http://www.w3.org/2000/svg"
   viewBox="0 0 1005.0337 290.60999"
   height="290.60999"
   width="1005.0337"
   xml:space="preserve"
   version="1.1"
   id="svg2"><metadata
     id="metadata8"><rdf:RDF><cc:Work
         rdf:about=""><dc:format>image/svg+xml</dc:format><dc:type
           rdf:resource="http://purl.org/dc/dcmitype/StillImage" /></cc:Work></rdf:RDF></metadata><defs
     id="defs6"><clipPath
       id="clipPath16"
       clipPathUnits="userSpaceOnUse"><path
         id="path18"
         d="m 227.641,141.58 0.716,-4.104 10.509,5.831 c 0,-17.149 -5.677,-38.397 -18.689,-54.258 l 0,0 c 1.358,-0.047 2.709,-0.139 4.041,-0.296 l 0,0 c 1.985,-0.23 3.881,-0.38 5.729,-0.467 l 0,0 c 18.178,23.185 23.142,55.396 16.591,69.531 l 0,0 c -6.809,-6.482 -12.86,-11.661 -18.897,-16.237 M 79.901,88.286 c 1.85,0.087 3.743,0.237 5.734,0.467 l 0,0 c 1.326,0.157 2.686,0.249 4.038,0.296 l 0,0 C 76.659,104.91 70.982,126.158 70.986,143.307 l 0,0 10.504,-5.831 0.718,4.104 c -6.036,4.576 -12.096,9.755 -18.896,16.237 l 0,0 C 56.756,143.682 61.724,111.471 79.901,88.286 m 110.465,29.943 C 169.753,106.604 157.564,78.921 154.93,50.798 l 0,0 c 1.883,0.273 3.69,0.474 5.454,0.628 l 0,0 c 16.133,14.772 39.402,26.193 51.511,26.873 l 0,0 c 12.113,0.681 28.835,-3.938 30.027,-14.385 l 0,0 C 243.098,53.582 231.225,49.585 218.505,48.915 l 0,0 c -6.194,-0.191 -11.79,0.824 -17.547,1.906 l 0,0 c -14.579,2.73 -28.224,4.079 -31.205,3.805 l 0,0 -4.122,-2.888 -0.009,-0.002 c 12.859,0.387 22.513,-2.082 31.361,-4.559 l 0,0 c 10.411,-2.905 19.704,-5.816 31.763,-4.062 l 0,0 c 13.291,1.943 22.659,9.729 21.918,21.431 l 0,0 c -0.374,5.752 -3.065,9.525 -6.908,11.941 l 0,0 c 8.717,0.368 17.895,2.376 29.086,6.567 l 0,0 c -0.998,-2.547 -2.201,-5.296 -3.639,-8.134 l 0,0 c -3.104,-5.651 -6.724,-11.879 -15.584,-18.718 l 0,0 c 0,0 -2.307,-3.876 -4.971,-6.574 l 0,0 c -0.058,-0.035 -0.1,-0.071 -0.148,-0.114 l 0,0 c 18.62,9.422 27.287,26.155 37.288,52.473 l 0,0 C 258.404,87.052 242.59,83.666 223.881,85.811 l 0,0 c -19.163,2.212 -38.928,-7.263 -56.744,-22.963 l 0,0 c 3.714,21.076 13.036,40.188 28.038,50.338 l 0,0 c 8.076,5.448 14.857,10.1 21.057,14.723 l 0,0 c -0.335,-10.659 -2.071,-26.36 -8.528,-39.834 l 0,0 c 2.603,0.492 5.242,0.813 7.913,0.939 l 0,0 c 7.957,17.793 9.011,40.563 9.063,50.36 l 0,0 c -10.034,-7.308 -20.351,-13.272 -34.314,-21.145 M 94.233,89.014 c 2.671,-0.126 5.311,-0.447 7.913,-0.939 l 0,0 c -6.459,13.474 -8.197,29.175 -8.528,39.834 l 0,0 c 6.195,-4.623 12.983,-9.275 21.056,-14.723 l 0,0 c 15.01,-10.15 24.322,-29.262 28.035,-50.338 l 0,0 0,-0.012 c -17.817,15.711 -37.575,25.187 -56.74,22.975 l 0,0 c -18.707,-2.145 -34.52,1.241 -61.907,16.176 l 0,0 C 35.91,70.814 45.873,53.087 72.755,45.032 l 0,0 c 2.703,-0.801 5.251,-1.396 7.673,-1.798 l 0,0 c 0.019,-0.003 0.034,-0.011 0.045,-0.011 l 0,0 c 9.47,-1.579 17.068,-0.359 24.642,1.603 l 0,0 c 0,0 -6.29,0.591 -8.509,1.307 l 0,0 C 82.271,45.726 69.785,50.674 61.33,56.189 l 0,0 C 51.682,62.482 44.319,69.763 41.241,81.541 l 0,0 C 57.693,75.935 69.852,75.345 83.428,77.81 l 0,0 c 21.123,3.833 43.584,-6.626 63.598,-24.202 l 0,0 c -0.878,0.055 -1.744,0.109 -2.59,0.137 l 0,0 c -12.261,10.258 -23.443,15.166 -36.183,19.331 l 0,0 c -5.162,1.688 -15.134,2.367 -18.455,1.374 l 0,0 C 82.242,72.193 79.333,67.602 80.869,61.252 l 0,0 C 82.698,53.701 93.9,48.717 106.979,47.617 l 0,0 c 2.356,-0.194 8.378,0.278 11.427,0.924 l 0,0 c 9.182,1.93 18.818,4.041 32.188,2.772 l 0,0 c 0.116,-0.014 0.223,-0.024 0.34,-0.04 l 0,0 c 0.542,-0.052 1.091,-0.111 1.642,-0.175 l 0,0 c 0.776,-0.092 1.555,-0.194 2.354,-0.3 l 0,0 c -2.647,28.123 -14.837,55.806 -35.451,67.431 l 0,0 c -13.959,7.873 -24.267,13.837 -34.31,21.145 l 0,0 c 0.052,-9.797 1.107,-32.567 9.064,-50.36 M 92.921,63.923 c 0.99,8.349 12.236,5.919 16.628,4.881 l 0,0 c 12.284,-2.892 19.165,-8.069 28.834,-14.869 l 0,0 c -7.116,0.216 -11.973,-0.587 -16.347,-1.397 l 0,0 c -3.867,-0.714 -7.362,-1.431 -11.721,-1.431 l 0,0 -0.308,0 c -3.076,0.02 -18.328,2.347 -17.086,12.816 m 136.77,68.336 c -0.26,-5.5 -0.839,-12.562 -2.102,-20.091 l 0,0 c 2.943,7.508 4.686,15.118 5.506,21.985 l 0,0 -3.404,-1.894 z M 82.262,112.176 c -1.264,7.521 -1.843,14.583 -2.101,20.083 l 0,0 -3.409,1.894 c 0.816,-6.867 2.564,-14.477 5.51,-21.977 m 24.568,-21.856 0.583,-1.207 c 8.762,-2.401 17.702,-6.715 26.598,-12.851 l 0,0 c -4.801,14.554 -12.572,26.074 -22.248,32.606 l 0,0 c -4.556,3.071 -8.533,5.786 -12.146,8.316 l 0,0 c 0.999,-8.548 3.087,-18.232 7.213,-26.864 m 91.258,18.548 c -9.669,-6.532 -17.447,-18.049 -22.252,-32.6 l 0,0 c 8.895,6.13 17.843,10.451 26.605,12.845 l 0,0 0.576,1.207 c 4.129,8.632 6.212,18.316 7.217,26.856 l 0,0 c -3.622,-2.522 -7.595,-5.237 -12.146,-8.308 m 55.96,-36.489 c 1.003,-2.214 1.598,-4.658 1.781,-7.315 l 0,0 c 3.296,3.332 5.426,6.463 7.091,9.293 l 0,0 c -3.05,-0.829 -5.997,-1.486 -8.872,-1.978 M 64.174,60.551 c 3.116,-2.038 8.233,-4.878 14.881,-6.877 l 0,0 c -1.539,1.857 -2.659,3.969 -3.239,6.353 l 0,0 c -1.07,4.412 -0.539,8.377 1.419,11.642 l 0,0 c -2.818,-0.301 -5.552,-0.446 -8.244,-0.446 l 0,0 c -6.067,0 -12.174,0.734 -18.683,2.269 l 0,0 c 3.01,-4.674 7.442,-8.76 13.866,-12.941 M 212.188,73.103 C 204.977,72.694 191.837,67.365 179.235,59.28 l 0,0 c 6.209,-0.646 14.422,-1.801 22.686,-3.34 l 0,0 c 4.836,-0.913 9.836,-1.845 15.078,-1.845 l 0,0 c 0.44,0 0.889,0.007 1.347,0.017 l 0,0 c 8.36,0.443 14.892,2.438 17.346,5.341 l 0,0 c 0.914,1.085 1.238,2.28 1.058,3.876 l 0,0 c -0.664,5.886 -12.156,9.83 -22.468,9.83 l 0,0 c -0.714,0 -1.415,-0.015 -2.094,-0.056 M 98.087,63.31 c -0.139,-1.171 0.119,-2.022 0.862,-2.869 l 0,0 c 2.486,-2.819 9.037,-4.114 11.099,-4.127 l 0,0 0.267,-0.004 c 3.549,0 6.497,0.547 9.914,1.184 l 0,0 c 0.877,0.157 1.775,0.329 2.715,0.492 l 0,0 c -4.282,2.455 -8.776,4.382 -14.585,5.759 l 0,0 c -1.282,0.298 -4.257,1.002 -6.879,1.002 l 0,0 c -3.218,0 -3.315,-0.794 -3.393,-1.437" /></clipPath><linearGradient
       id="linearGradient24"
       spreadMethod="pad"
       gradientTransform="matrix(261.72559,0,0,-261.72559,24.0625,100.1582)"
       gradientUnits="userSpaceOnUse"
       y2="0"
       x2="1"
       y1="0"
       x1="0"><stop
         id="stop26"
         offset="0"
         style="stop-opacity:1;stop-color:#cc953d" /><stop
         id="stop28"
         offset="0.17922881"
         style="stop-opacity:1;stop-color:#f8df8d" /><stop
         id="stop30"
         offset="0.5"
         style="stop-opacity:1;stop-color:#f8df8d" /><stop
         id="stop32"
         offset="0.75627708"
         style="stop-opacity:1;stop-color:#f8df8d" /><stop
         id="stop34"
         offset="1"
         style="stop-opacity:1;stop-color:#cc953d" /></linearGradient><clipPath
       id="clipPath42"
       clipPathUnits="userSpaceOnUse"><path
         id="path44"
         d="m 142.973,193.881 c 0,-1.56 0.36,-3.038 0.995,-4.376 l 0,0 c 0.994,0.625 5.053,2.947 10.922,2.947 l 0,0 c 5.863,0 9.932,-2.322 10.922,-2.947 l 0,0 c 0.63,1.338 0.994,2.816 0.994,4.376 l 0,0 c 0,6.05 -5.338,10.958 -11.916,10.958 l 0,0 c -6.583,0 -11.917,-4.908 -11.917,-10.958 m 2.454,-6.96 c 7.359,-6.786 5.451,-18.933 4.907,-26.393 l 0,0 c -0.565,-7.724 -4.307,-17.753 -8.352,-28.557 l 0,0 c 8.58,0.96 17.235,0.96 25.816,0 l 0,0 c -4.041,10.804 -7.789,20.833 -8.349,28.557 l 0,0 c -0.544,7.46 -2.457,19.607 4.906,26.393 l 0,0 c 0,0 -3.684,2.58 -9.465,2.58 l 0,0 c -5.782,0 -9.463,-2.58 -9.463,-2.58 m -4.331,-57.333 c -2.407,-6.434 -4.832,-13.095 -6.694,-19.663 l 0,0 c 9.372,-10.207 16.541,-24.51 20.528,-41.066 l 0,0 c 3.975,16.528 11.118,30.809 20.466,41.009 l 0,0 c -1.871,6.593 -4.298,13.272 -6.711,19.72 l 0,0 c -4.58,0.56 -9.184,0.847 -13.795,0.847 l 0,0 c -4.607,0 -9.214,-0.287 -13.794,-0.847" /></clipPath><linearGradient
       id="linearGradient50"
       spreadMethod="pad"
       gradientTransform="matrix(40.993652,0,0,-40.993652,134.40234,136.84912)"
       gradientUnits="userSpaceOnUse"
       y2="0"
       x2="1"
       y1="0"
       x1="0"><stop
         id="stop52"
         offset="0"
         style="stop-opacity:1;stop-color:#cc953d" /><stop
         id="stop54"
         offset="0.31074429"
         style="stop-opacity:1;stop-color:#f8df8d" /><stop
         id="stop56"
         offset="0.5"
         style="stop-opacity:1;stop-color:#f8df8d" /><stop
         id="stop58"
         offset="0.68925571"
         style="stop-opacity:1;stop-color:#f8df8d" /><stop
         id="stop60"
         offset="1"
         style="stop-opacity:1;stop-color:#cc953d" /></linearGradient><clipPath
       id="clipPath68"
       clipPathUnits="userSpaceOnUse"><path
         id="path70"
         d="m 673.717,88.934 c -1.344,-0.461 -2.691,-0.826 -4.114,-1.094 l 0,0 0.092,-1.003 0.951,0 c 0.66,0 0.815,-0.028 0.926,-0.107 l 0,0 0.071,-0.044 0.042,-0.081 c 0.07,-0.139 0.109,-0.34 -0.106,-1.423 l 0,0 C 670.45,79.296 669.19,73.398 668.172,68.658 l 0,0 -0.206,-0.948 -0.539,-2.677 0.416,-0.299 0.014,0.004 c 0.501,0.175 1.137,0.377 1.917,0.606 l 0,0 0.543,0.175 c 0.223,1.213 0.621,3.174 0.919,4.636 l 0,0 0.294,1.346 c 1.615,2.876 5.134,6.193 6.848,6.451 l 0,0 0.309,0.047 0.056,-0.31 c 0.059,-0.304 -0.01,-0.91 -0.21,-1.788 l 0,0 -1.757,-7.749 c -0.384,-1.62 -0.384,-2.633 -0.004,-3.104 l 0,0 c 0.173,-0.221 0.419,-0.334 0.727,-0.334 l 0,0 c 1.06,0 3.145,1.217 4.944,3.49 l 0,0 -0.279,0.33 -0.274,0.439 -0.061,-0.092 -0.095,0.122 c -0.799,-0.768 -1.458,-1.158 -1.713,-1.288 l 0,0 -0.585,-0.315 0.115,0.651 0.086,0.489 1.73,7.446 c 0.589,2.498 0.288,3.535 -0.077,3.974 l 0,0 c -0.238,0.306 -0.58,0.466 -1.022,0.466 l 0,0 c -0.631,0 -1.467,-0.27 -2.306,-0.739 l 0,0 c -0.402,-0.197 -2.48,-1.332 -4.646,-3.831 l 0,0 -0.119,-0.147 c -0.091,-0.1 -0.183,-0.208 -0.272,-0.333 l 0,0 -0.585,0.263 2.644,12.188 c 0.146,0.702 0.161,0.989 -0.082,1.276 l 0,0 -0.234,0.071 c -0.173,0 -0.475,-0.089 -0.951,-0.24 m -146.739,-2.62 0.394,-1.093 0.471,0.073 c 0.631,0.919 1.239,1.11 1.636,1.11 l 0,0 c 0.635,0 0.931,-0.305 0.931,-0.957 l 0,0 c 0,-0.547 -0.498,-1.195 -0.987,-1.826 l 0,0 -0.084,-0.096 c -0.347,-0.459 -0.563,-0.793 -0.72,-1.134 l 0,0 c -0.085,-0.153 -0.154,-0.276 -0.128,-0.644 l 0,0 0.919,-0.168 0.144,0.085 c 0.279,0.42 0.703,0.82 1.242,1.336 l 0,0 c 0.945,0.891 2.017,1.906 2.017,3.288 l 0,0 c 0,1 -0.599,2.066 -2.268,2.066 l 0,0 c -1.906,0 -3.422,-1.862 -3.567,-2.04 m 112.432,1.162 -0.093,-0.447 c 0.84,-1.457 1.866,-3.378 2.839,-5.232 l 0,0 0.178,-0.345 1.222,0.56 -0.501,2.098 c -0.207,0.813 -0.418,1.652 -0.638,2.43 l 0,0 c -0.083,0.357 -0.221,0.999 -0.286,1.29 l 0,0 -0.329,0.172 c -0.711,-0.022 -1.983,-0.297 -2.392,-0.526 m -51.635,0 -0.115,-0.457 c 0.917,-1.532 1.968,-3.524 2.965,-5.444 l 0,0 0.073,-0.129 1.212,0.566 -0.337,1.422 -0.164,0.655 c -0.206,0.822 -0.408,1.658 -0.639,2.438 l 0,0 c -0.09,0.364 -0.225,1.021 -0.293,1.308 l 0,0 -0.324,0.167 C 589.469,87.98 588.159,87.7 587.775,87.476 M 450.771,74.316 c 0,-5.887 3.94,-9.697 10.04,-9.697 l 0,0 c 2.073,0 3.927,0.459 5.573,0.872 l 0,0 c 0.516,0.116 1.034,0.253 1.656,0.563 l 0,0 c -0.099,0.667 -0.045,1.536 0.165,2.578 l 0,0 0.522,2.772 c 0.445,2.349 0.537,2.459 2.463,2.88 l 0,0 0.107,1.038 -0.07,0.01 -8.283,-0.157 -0.029,-1.07 c 1.823,-0.132 2.562,-0.295 2.833,-0.654 l 0,0 c 0.24,-0.339 0.126,-1.005 -0.073,-1.983 l 0,0 -0.65,-3.144 c -0.408,-1.968 -2.26,-2.194 -3.617,-2.194 l 0,0 c -4.363,0 -7.073,3.22 -7.073,8.421 l 0,0 c 0,5.608 3.457,11.57 9.863,11.57 l 0,0 c 3.522,0 5.103,-1.516 5.276,-4.956 l 0,0 0.083,-0.203 1.112,0.228 c 0.062,1.088 0.137,2.083 0.206,2.94 l 0,0 0.027,0.394 c 0.056,0.77 0.107,1.429 0.049,2.024 l 0,0 0,0.011 -0.043,0.018 c -0.844,0.286 -3.078,1.049 -5.909,1.049 l 0,0 c -8.378,0 -14.228,-5.47 -14.228,-13.31 m 203.628,10.349 c 0.008,-0.935 0.662,-1.613 1.546,-1.613 l 0,0 c 1.075,0 1.951,0.949 1.951,2.099 l 0,0 c -0.018,0.275 -0.153,1.667 -1.497,1.667 l 0,0 c -1.288,0 -2,-1.276 -2,-2.153 m -161.141,0.011 c 0.036,-0.956 0.678,-1.624 1.568,-1.624 l 0,0 c 1.063,0 1.927,0.949 1.927,2.099 l 0,0 c -0.047,1.01 -0.642,1.667 -1.493,1.667 l 0,0 c -1.291,0 -2.001,-1.276 -2.002,-2.142 m 80.996,-1.93 -0.543,-2.917 -2.17,-0.089 -0.848,-1.152 0.259,-0.41 2.285,0.117 -1.958,-8.966 c -0.569,-2.685 -0.256,-3.798 0.117,-4.254 l 0,0 c 0.19,-0.234 0.456,-0.361 0.765,-0.361 l 0,0 c 1.774,0 4.372,2.28 5.489,3.856 l 0,0 -0.338,0.311 -0.264,0.351 -0.103,0.075 -0.015,-0.018 c -0.656,-0.719 -1.921,-1.569 -2.666,-1.798 l 0,0 -0.401,-0.121 -0.019,0.414 c -0.01,0.288 0.039,0.75 0.171,1.397 l 0,0 1.805,9.011 3.447,0.234 0.505,0.785 0.311,0.603 -3.29,-0.078 -0.519,-0.157 1.083,5.254 -0.473,0.177 -2.63,-2.264 z m 125.547,0.022 c 0,-0.644 0.383,-0.816 0.761,-0.941 l 0,0 c 0.379,-0.08 0.813,-0.17 0.865,-0.629 l 0,0 c 0,-0.458 -0.953,-0.864 -2.795,-1.203 l 0,0 -1.19,-0.345 c -0.186,-0.835 -0.926,-4.203 -1.225,-5.517 l 0,0 c -1.249,-2.332 -4.949,-6.798 -6.74,-6.816 l 0,0 -0.331,0 0,0.265 c -0.116,0.322 -0.081,0.931 0.101,1.747 l 0,0 c 0.45,1.876 0.885,3.819 1.307,5.716 l 0,0 0.51,2.265 c 0.385,1.554 0.405,2.343 0.074,2.806 l 0,0 -0.315,0.119 -0.368,0.191 c -0.962,-0.064 -2.987,-1.245 -4.957,-3.4 l 0,0 0.261,-0.349 0.232,-0.419 0.048,-0.048 0.073,0.06 0.035,-0.054 c 0.655,0.522 1.221,0.941 1.695,1.247 l 0,0 0.577,0.366 -0.081,-0.684 c -0.004,-0.063 -0.022,-0.138 -0.074,-0.313 l 0,0 -1.784,-7.654 c -0.479,-1.951 -0.446,-3.247 0.102,-3.942 l 0,0 c 0.263,-0.338 0.666,-0.522 1.156,-0.522 l 0,0 c 0.83,0 1.843,0.389 2.789,1.071 l 0,0 c 1.315,0.911 2.669,2.223 3.937,3.823 l 0,0 0.311,0.367 0.785,0.909 -0.224,-1.175 c -0.07,-0.413 -0.163,-0.809 -0.227,-1.114 l 0,0 -0.029,-0.124 c -0.422,-1.827 -0.43,-2.952 -0.032,-3.446 l 0,0 c 0.161,-0.214 0.388,-0.311 0.694,-0.311 l 0,0 c 1.187,0 3.461,1.677 4.964,3.658 l 0,0 -0.298,0.338 -0.265,0.439 -0.078,0.081 -0.016,-0.017 -0.014,0.012 -0.021,-0.019 c -0.773,-0.814 -1.576,-1.326 -1.813,-1.463 l 0,0 -0.561,-0.291 0.083,0.665 c 0.008,0.129 0.034,0.29 0.067,0.515 l 0,0 c 0.767,3.908 1.359,6.484 2.039,9.476 l 0,0 0.055,0.239 0.089,0.451 0.178,0.062 c 2.164,0.769 3.213,1.937 3.213,3.566 l 0,0 c 0,1.246 -0.675,2.031 -1.765,2.031 l 0,0 c -0.866,0 -1.798,-0.678 -1.798,-1.689 m -104.456,0 c 0,-0.494 0.232,-0.784 0.769,-0.941 l 0,0 c 0.423,-0.088 0.783,-0.194 0.872,-0.629 l 0,0 c 0,-0.46 -0.953,-0.871 -2.804,-1.203 l 0,0 -1.204,-0.342 c -0.324,-1.531 -0.645,-3.004 -0.917,-4.254 l 0,0 -0.29,-1.266 c -1.283,-2.389 -4.924,-6.798 -6.759,-6.816 l 0,0 -0.33,0 0,0.265 c -0.115,0.322 -0.079,0.92 0.097,1.732 l 0,0 c 0.314,1.286 0.606,2.579 0.907,3.893 l 0,0 c 0.18,0.805 0.365,1.615 0.554,2.439 l 0,0 0.369,1.669 c 0.369,1.515 0.402,2.274 0.083,2.798 l 0,0 -0.338,0.13 -0.349,0.183 c -0.961,-0.067 -2.993,-1.245 -4.961,-3.391 l 0,0 0.271,-0.361 0.23,-0.416 0.012,-0.013 0.055,0.048 0.059,-0.085 c 0.794,0.636 1.321,0.995 1.698,1.247 l 0,0 0.584,0.392 -0.079,-0.695 c -0.002,-0.025 -0.012,-0.097 -0.597,-2.58 l 0,0 c 0,0 -0.866,-3.753 -1.272,-5.411 l 0,0 c -0.46,-1.93 -0.426,-3.252 0.105,-3.925 l 0,0 c 0.268,-0.344 0.672,-0.522 1.167,-0.522 l 0,0 c 0.843,0 1.853,0.389 2.793,1.071 l 0,0 c 1.36,0.947 2.86,2.382 4.214,4.035 l 0,0 0.572,-0.272 c -0.069,-0.318 -0.144,-0.683 -0.241,-1.077 l 0,0 c -0.423,-1.827 -0.435,-2.952 -0.026,-3.446 l 0,0 c 0.148,-0.198 0.392,-0.311 0.693,-0.311 l 0,0 c 1.205,0 3.474,1.677 4.96,3.665 l 0,0 -0.27,0.295 -0.153,0.236 -0.17,0.197 -0.031,0.042 -0.063,0.064 -0.007,-0.014 c -0.634,-0.65 -1.344,-1.176 -1.804,-1.456 l 0,0 -0.626,-0.382 0.137,0.711 c 0.026,0.137 0.052,0.314 0.087,0.56 l 0,0 c 0.741,3.866 1.312,6.315 2.025,9.415 l 0,0 0.117,0.505 0,0.229 0.218,0.079 c 2.18,0.8 3.196,1.937 3.196,3.566 l 0,0 c 0,1.246 -0.659,2.031 -1.734,2.031 l 0,0 c -0.882,0 -1.819,-0.678 -1.819,-1.689 M 715.128,82.51 c 0,-0.489 0.268,-0.816 0.778,-0.964 l 0,0 c 0.354,-0.062 0.789,-0.128 0.857,-0.6 l 0,0 c 0,-0.451 -0.707,-0.92 -1.893,-0.92 l 0,0 c -0.474,0 -0.852,0.077 -1.192,0.147 l 0,0 -0.109,0.026 c -0.42,0.149 -0.935,0.227 -1.55,0.227 l 0,0 c -1,0 -2.401,-0.418 -3.657,-1.092 l 0,0 c -2.502,-1.33 -5.171,-4.454 -5.171,-9.24 l 0,0 c 0,-1.261 0.333,-5.38 4.569,-5.38 l 0,0 c 1.723,0 3.584,0.764 5.247,2.145 l 0,0 c 2.204,1.844 3.629,5.058 3.629,8.192 l 0,0 c 0,1.092 -0.216,1.975 -0.698,2.858 l 0,0 -0.063,0.132 c -0.052,0.084 -0.101,0.184 -0.161,0.294 l 0,0 -0.222,0.351 0.395,0.123 c 1.817,0.598 2.818,1.794 2.818,3.365 l 0,0 c 0,1.262 -0.67,2.05 -1.765,2.05 l 0,0 c -0.874,0 -1.812,-0.689 -1.812,-1.714 m -8.793,-12.266 c 0,4.969 2.109,7.727 3.422,8.279 l 0,0 c 0.283,0.143 0.673,0.305 1.195,0.305 l 0,0 c 1.576,0 2.552,-1.475 2.552,-3.844 l 0,0 c 0,-4.26 -1.841,-7.677 -3.556,-8.411 l 0,0 c -0.318,-0.124 -0.624,-0.172 -0.987,-0.172 l 0,0 c -1.62,0 -2.626,1.472 -2.626,3.843 M 485.162,82.51 c 0,-0.489 0.266,-0.816 0.774,-0.964 l 0,0 c 0.418,-0.068 0.784,-0.132 0.859,-0.6 l 0,0 c 0,-0.383 -0.59,-0.92 -1.905,-0.92 l 0,0 c -0.473,0 -0.852,0.08 -1.112,0.133 l 0,0 -0.166,0.04 c -0.406,0.14 -0.972,0.227 -1.553,0.227 l 0,0 c -1.011,0 -2.382,-0.409 -3.666,-1.092 l 0,0 c -2.496,-1.31 -5.16,-4.429 -5.16,-9.24 l 0,0 c 0,-3.419 1.668,-5.38 4.567,-5.38 l 0,0 c 1.729,0 3.583,0.764 5.219,2.145 l 0,0 c 2.211,1.839 3.641,5.054 3.641,8.192 l 0,0 c 0,1.117 -0.208,2.004 -0.691,2.88 l 0,0 c -0.064,0.134 -0.133,0.25 -0.228,0.404 l 0,0 -0.214,0.351 0.396,0.123 c 1.811,0.592 2.814,1.79 2.814,3.365 l 0,0 c 0,1.262 -0.668,2.05 -1.741,2.05 l 0,0 c -0.884,0 -1.834,-0.689 -1.834,-1.714 m -8.79,-12.266 c 0,4.973 2.099,7.727 3.413,8.279 l 0,0 c 0.285,0.143 0.691,0.305 1.211,0.305 l 0,0 c 1.58,0 2.52,-1.439 2.52,-3.844 l 0,0 c 0,-4.26 -1.827,-7.677 -3.533,-8.411 l 0,0 c -0.3,-0.121 -0.617,-0.172 -0.993,-0.172 l 0,0 c -1.617,0 -2.618,1.472 -2.618,3.843 m 263.737,8.495 c -1.797,-1.424 -2.871,-3.561 -2.871,-5.714 l 0,0 c 0,-1.891 0.74,-3.209 2.166,-3.826 l 0,0 0.603,-0.219 -0.529,-0.36 c -0.928,-0.643 -1.36,-1.179 -1.36,-1.704 l 0,0 c -0.036,-0.348 0.194,-0.758 0.632,-1.112 l 0,0 0.5,-0.485 -0.394,-0.204 c -3.489,-1.855 -5.065,-3.286 -5.094,-4.643 l 0,0 c -0.032,-0.713 0.262,-1.418 0.84,-2.03 l 0,0 c 1.113,-1.156 3.135,-1.883 5.28,-1.883 l 0,0 c 3.203,0 8.04,1.971 8.04,4.934 l 0,0 c 0,1.505 -1.325,2.834 -4.596,4.582 l 0,0 c -1.02,0.522 -2.251,1.248 -2.31,1.783 l 0,0 c 0,0.248 0.113,0.528 0.329,0.8 l 0,0 0.077,0.102 0.118,0.023 c 2.404,0.442 3.946,1.605 4.379,1.956 l 0,0 c 0.435,0.327 2.585,2.085 2.585,5.211 l 0,0 c 0,0.568 -0.054,0.97 -0.176,1.298 l 0,0 -0.129,0.368 0.385,0.062 c 0.125,0.026 0.227,0.05 0.389,0.084 l 0,0 c 0.358,0.059 1.332,0.36 2.479,1.817 l 0,0 -0.478,0.674 c -0.424,-0.274 -1.43,-0.724 -3.412,-0.807 l 0,0 -0.126,-0.009 -0.092,0.081 c -0.736,0.588 -1.728,0.908 -2.862,0.908 l 0,0 c -1.344,0 -3.06,-0.663 -4.373,-1.687 m 0.011,-5.484 c 0,1.588 0.451,3.138 1.236,4.245 l 0,0 c 0.62,0.904 1.454,1.423 2.288,1.423 l 0,0 c 1.27,0 2.057,-1.181 2.057,-3.077 l 0,0 c 0,-3.357 -1.859,-5.43 -3.587,-5.43 l 0,0 c -1.21,0 -1.994,1.112 -1.994,2.839 m -3.268,-12.221 c 0,1.064 1.23,2.286 3.378,3.354 l 0,0 0.157,0.075 0.141,-0.083 c 0.305,-0.162 1.231,-0.656 2.253,-1.303 l 0,0 c 1.613,-0.928 2.364,-1.726 2.364,-2.502 l 0,0 c 0,-1.122 -1.471,-2.279 -3.928,-2.279 l 0,0 c -2.403,0 -4.365,1.226 -4.365,2.738 m -6.705,18.619 c -0.573,-0.333 -2.6,-1.628 -4.9,-4.475 l 0,0 -0.579,0.278 0.25,1.069 c 0.501,1.974 0.515,3.05 0.042,3.652 l 0,0 -0.184,0.043 -0.372,0.206 c -0.974,-0.067 -2.931,-1.263 -4.753,-3.431 l 0,0 0.315,-0.371 0.268,-0.414 0.06,-0.067 0.015,0.003 0.003,-0.01 0.028,0.022 c 0.594,0.58 1.203,1.029 1.538,1.24 l 0,0 0.539,0.33 -0.037,-0.636 c -0.007,-0.148 -0.052,-0.333 -0.123,-0.624 l 0,0 c -0.652,-2.96 -1.414,-6.12 -2.208,-9.354 l 0,0 -0.442,-2.081 0.38,-0.299 0.008,0 c 0.459,0.179 1.121,0.381 1.899,0.61 l 0,0 0.593,0.195 0,0.009 c 0.289,1.481 0.663,2.992 1.014,4.457 l 0,0 0.272,1.118 c 1.658,2.826 5.465,6.85 6.81,6.876 l 0,0 0.143,0.002 0.096,-0.101 c 0.217,-0.217 0.183,-0.927 -0.096,-2.115 l 0,0 -0.82,-3.365 c 0,0 -0.674,-2.827 -0.983,-4.028 l 0,0 c -0.414,-1.788 -0.415,-2.853 -0.021,-3.354 l 0,0 c 0.175,-0.217 0.409,-0.324 0.725,-0.324 l 0,0 c 0.893,0 2.785,1.09 4.822,3.495 l 0,0 -0.332,0.378 -0.252,0.371 -0.041,-0.058 -0.113,0.141 c -0.613,-0.582 -1.17,-1.026 -1.557,-1.269 l 0,0 -0.608,-0.372 0.114,0.706 c 0,0 0.071,0.301 0.09,0.443 l 0,0 c 0.283,1.101 0.546,2.236 0.851,3.535 l 0,0 c 0,0 0.564,2.382 0.8,3.341 l 0,0 c 0.553,2.422 0.563,3.923 0.041,4.583 l 0,0 c -0.231,0.268 -0.553,0.418 -0.955,0.418 l 0,0 c -0.681,0 -1.421,-0.249 -2.34,-0.773 m -79.366,-2.666 0.352,-0.579 0.097,-0.101 0.055,-0.034 0.068,-0.093 0.111,0.078 0.013,-0.013 c 0.687,0.566 1.25,0.92 1.556,1.114 l 0,0 0.566,0.354 -0.066,-0.666 c -0.006,-0.03 -0.011,-0.106 -2.146,-8.861 l 0,0 c -0.418,-1.674 -0.449,-2.715 -0.102,-3.173 l 0,0 c 0.173,-0.202 0.4,-0.299 0.697,-0.299 l 0,0 c 1.372,0 4.005,2.192 4.999,3.626 l 0,0 -0.566,0.687 -0.05,0.066 -0.063,-0.027 c -0.567,-0.532 -1.232,-1.041 -1.692,-1.321 l 0,0 -0.558,-0.33 0.066,0.645 c 0.005,0.028 0.01,0.101 2.368,9.518 l 0,0 c 0.321,1.411 0.34,2.23 0.025,2.605 l 0,0 c -0.112,0.156 -0.29,0.243 -0.525,0.243 l 0,0 c -0.843,0 -3.173,-1.231 -5.205,-3.439 m -3.378,3.42 -2.43,-0.996 c -0.281,-1.387 -0.567,-2.64 -0.82,-3.746 l 0,0 -0.351,-1.532 c -1.206,-2.269 -4.969,-6.798 -6.739,-6.816 l 0,0 -0.173,0 -0.093,0.141 c -0.092,0.12 -0.263,0.55 0.024,1.849 l 0,0 1.84,8.008 c 0.411,1.684 0.411,2.381 -0.004,2.868 l 0,0 -0.254,0.06 -0.348,0.183 c -0.968,-0.064 -2.995,-1.245 -4.982,-3.391 l 0,0 0.264,-0.358 0.232,-0.422 0.043,-0.047 0.056,0.03 0.033,-0.039 c 0.696,0.552 1.289,0.988 1.726,1.241 l 0,0 0.563,0.334 -0.076,-0.652 c -0.003,-0.024 -0.003,-0.087 -1.87,-7.954 l 0,0 c -0.443,-1.937 -0.402,-3.259 0.128,-3.932 l 0,0 c 0.268,-0.344 0.657,-0.522 1.147,-0.522 l 0,0 c 0.852,0 1.844,0.378 2.793,1.071 l 0,0 c 1.405,0.98 2.873,2.424 4.243,4.18 l 0,0 0.574,-0.256 c -0.042,-0.257 -0.107,-0.512 -0.172,-0.794 l 0,0 -0.105,-0.444 c -0.419,-1.823 -0.427,-2.952 -0.032,-3.438 l 0,0 c 0.179,-0.212 0.411,-0.319 0.708,-0.319 l 0,0 c 1.211,0 3.483,1.677 4.965,3.658 l 0,0 -0.263,0.302 -0.157,0.241 -0.036,0.043 -0.056,-0.033 -0.071,0.116 -0.01,-0.017 -0.115,0.154 c -0.774,-0.786 -1.52,-1.274 -1.804,-1.435 l 0,0 -0.626,-0.378 0.135,0.707 c 0.016,0.089 0.083,0.56 0.083,0.56 l 0,0 c 0.76,3.87 1.647,7.748 2.324,10.688 l 0,0 0.088,0.35 0.088,0.756 -0.47,-0.019 z m -21.088,-0.644 c -0.238,-0.126 -2.329,-1.296 -4.606,-4.054 l 0,0 c -0.121,-0.139 -0.229,-0.278 -0.339,-0.421 l 0,0 -0.583,0.261 c 0.466,2.294 0.429,3.79 -0.111,4.446 l 0,0 c -0.227,0.278 -0.558,0.431 -0.936,0.431 l 0,0 c -0.665,0 -1.307,-0.21 -2.156,-0.698 l 0,0 c -0.901,-0.522 -2.718,-1.772 -4.727,-4.253 l 0,0 -0.574,0.275 0.085,0.377 c 0.55,2.218 0.609,3.488 0.193,4.011 l 0,0 c -0.134,0.184 -0.358,0.288 -0.622,0.288 l 0,0 c -0.918,0 -2.924,-1.224 -4.841,-3.469 l 0,0 0.286,-0.339 0.253,-0.424 0.068,-0.067 0.069,0.041 0.01,-0.012 c 0.57,0.527 1.112,0.95 1.476,1.229 l 0,0 0.164,0.127 0.645,0.468 -0.131,-0.815 c -0.025,-0.17 -0.063,-0.388 -0.124,-0.697 l 0,0 c -0.674,-3.042 -1.507,-6.516 -2.702,-11.48 l 0,0 0.39,-0.254 0.007,0.004 c 0.6,0.215 1.301,0.416 2.491,0.733 l 0,0 c 0.475,2.168 0.941,4.23 1.364,5.694 l 0,0 c 1.054,2.09 5.054,6.859 6.589,6.867 l 0,0 0.162,0 0.102,-0.132 c 0.104,-0.138 0.292,-0.4 -0.168,-2.755 l 0,0 c -0.483,-2.186 -1.052,-4.502 -1.611,-6.745 l 0,0 -0.264,-1.065 -0.487,-2.34 0.365,-0.261 0.009,0.004 c 0.633,0.229 1.406,0.436 2.55,0.74 l 0,0 c 0.484,2.287 0.934,4.327 1.267,5.681 l 0,0 c 1.137,2.158 5.121,6.865 6.614,6.873 l 0,0 0.16,-0.007 0.107,-0.125 c 0.183,-0.222 0.159,-0.845 -0.064,-1.836 l 0,0 -1.829,-7.672 c -0.39,-1.767 -0.39,-2.861 0.006,-3.359 l 0,0 c 0.177,-0.218 0.402,-0.319 0.698,-0.319 l 0,0 c 0.83,0 2.983,1.21 4.84,3.483 l 0,0 -0.298,0.351 -0.262,0.406 -0.098,0.087 -0.029,-0.029 c -0.772,-0.705 -1.414,-1.092 -1.65,-1.233 l 0,0 -0.674,-0.364 0.199,0.746 c 0.045,0.169 1.247,5.275 1.705,7.22 l 0,0 c 0.563,2.408 0.578,3.963 0.054,4.627 l 0,0 c -0.235,0.277 -0.541,0.418 -0.937,0.418 l 0,0 c -0.659,0 -1.248,-0.191 -2.105,-0.663 m -71.128,0 c -0.371,-0.205 -1.713,-1.008 -3.399,-2.776 l 0,0 c -0.518,-0.506 -1.03,-1.065 -1.56,-1.713 l 0,0 -0.572,0.268 c 0.462,2.292 0.414,3.792 -0.119,4.453 l 0,0 c -0.245,0.278 -0.562,0.431 -0.946,0.431 l 0,0 c -0.667,0 -1.301,-0.21 -2.142,-0.698 l 0,0 c -0.643,-0.374 -1.954,-1.241 -3.46,-2.908 l 0,0 c -0.405,-0.427 -0.852,-0.929 -1.312,-1.498 l 0,0 -0.568,0.28 0.117,0.525 c 0.56,2.218 0.624,3.488 0.208,4.009 l 0,0 c -0.142,0.186 -0.364,0.29 -0.62,0.29 l 0,0 c -0.927,0 -2.945,-1.22 -4.846,-3.469 l 0,0 0.292,-0.346 0.247,-0.417 0.072,-0.067 0.038,0.019 0.012,-0.01 c 0.697,0.643 1.334,1.137 1.652,1.381 l 0,0 0.62,0.473 -0.095,-0.775 c -0.021,-0.152 -0.06,-0.383 -0.129,-0.747 l 0,0 c -0.674,-3.024 -1.486,-6.423 -2.618,-11.12 l 0,0 -0.088,-0.363 0.375,-0.251 0.012,0.004 c 0.712,0.25 1.468,0.453 2.342,0.68 l 0,0 0.173,0.053 c 0.446,2.072 0.919,4.201 1.347,5.688 l 0,0 c 1.039,2.096 5.05,6.865 6.606,6.873 l 0,0 0.162,0 0.094,-0.132 c 0.091,-0.111 0.309,-0.388 -0.183,-2.755 l 0,0 c -0.547,-2.566 -1.252,-5.386 -1.867,-7.872 l 0,0 -0.171,-0.7 -0.306,-1.578 0.387,-0.261 0.007,0 c 0.587,0.231 1.364,0.44 2.511,0.737 l 0,0 c 0.437,2.064 0.916,4.212 1.288,5.682 l 0,0 c 1.141,2.154 5.134,6.866 6.61,6.888 l 0,0 0.083,0 0.071,-0.037 c 0.11,-0.052 0.445,-0.222 0.07,-1.94 l 0,0 -1.851,-7.678 c -0.411,-1.742 -0.411,-2.838 -0.015,-3.353 l 0,0 c 0.174,-0.206 0.422,-0.319 0.715,-0.319 l 0,0 c 0.845,0 2.984,1.21 4.832,3.495 l 0,0 -0.301,0.339 -0.26,0.406 -0.1,0.092 -0.036,-0.034 c -0.517,-0.478 -1.123,-0.94 -1.62,-1.228 l 0,0 -0.648,-0.369 c 0,0 1.852,7.966 1.852,7.973 l 0,0 c 0.587,2.379 0.614,3.932 0.078,4.61 l 0,0 c -0.241,0.287 -0.548,0.428 -0.933,0.428 l 0,0 c -0.668,0 -1.259,-0.191 -2.108,-0.663 m -31.914,-1.945 c -2.432,-2.016 -4.075,-5.701 -4.075,-9.16 l 0,0 c 0,-2.708 1.096,-3.944 2.111,-3.944 l 0,0 c 0.867,0 1.983,0.532 3.213,1.541 l 0,0 c 1.09,0.902 2.064,1.897 2.878,2.958 l 0,0 c 0.095,0.104 0.177,0.208 0.25,0.308 l 0,0 0.577,-0.265 -0.284,-1.393 c -0.297,-1.529 -0.269,-2.433 0.088,-2.858 l 0,0 c 0.159,-0.19 0.391,-0.291 0.674,-0.291 l 0,0 c 0.92,0 3.235,1.333 5.011,3.734 l 0,0 -0.252,0.29 -0.131,0.232 -0.198,0.236 -0.037,-0.025 -0.024,0.044 -0.034,0.043 c -0.755,-0.755 -1.494,-1.26 -1.773,-1.438 l 0,0 -0.541,-0.351 0.035,0.649 c 0.012,0.151 0.046,0.397 0.117,0.693 l 0,0 c 0.774,4.295 1.787,8.892 2.259,10.919 l 0,0 -0.243,0.249 c -0.287,0 -0.621,0.071 -1.008,0.153 l 0,0 -0.215,0.047 c -0.772,0.157 -1.457,0.237 -2.084,0.237 l 0,0 c -1.964,0 -4.443,-1.025 -6.314,-2.608 m -0.96,-8.593 c 0,3.041 1.212,7.039 3.535,8.776 l 0,0 c 0.525,0.388 1.436,0.648 2.259,0.648 l 0,0 c 0.419,0 0.825,-0.057 1.181,-0.114 l 0,0 0.311,-0.046 c 0.068,-0.01 0.128,-0.013 0.223,-0.029 l 0,0 0.352,-0.04 -0.07,-0.346 c -0.236,-1.14 -0.694,-3.239 -1.014,-4.447 l 0,0 c -1.147,-2.32 -4.809,-6.413 -6.126,-6.413 l 0,0 -0.006,0 c -0.322,0.109 -0.645,0.768 -0.645,2.011 m -12.28,8.689 c -2.095,-1.928 -3.496,-5.196 -3.496,-8.119 l 0,0 c 0,-3.179 1.401,-5.081 3.749,-5.081 l 0,0 c 2.213,0 4.869,1.571 6.789,4 l 0,0 -0.537,0.654 -0.068,0.027 -0.091,0.104 -0.059,-0.069 c -0.906,-0.928 -2.922,-2.401 -4.489,-2.401 l 0,0 c -1.365,0 -2.202,1.307 -2.202,3.419 l 0,0 c 0,2.068 0.55,4.356 1.438,5.957 l 0,0 c 0.409,0.788 1.295,2.112 2.61,2.112 l 0,0 c 0.965,0 1.675,-0.412 2.362,-1.365 l 0,0 c 0.199,-0.247 0.401,-0.373 0.601,-0.373 l 0,0 c 0.109,0 0.233,0.04 0.362,0.126 l 0,0 c 0.869,0.454 1.175,1.188 1.175,1.701 l 0,0 c -0.039,0.879 -1.083,1.82 -2.709,1.82 l 0,0 c -1.68,0 -4.057,-1.297 -5.435,-2.512 m -20.392,-0.927 0.471,-0.658 0.198,-0.121 c 0.651,0.571 1.268,0.949 1.598,1.151 l 0,0 0.645,0.403 -0.16,-0.745 c -0.019,-0.089 -1.78,-7.37 -2.135,-8.831 l 0,0 c -0.42,-1.705 -0.443,-2.708 -0.09,-3.181 l 0,0 c 0.156,-0.19 0.388,-0.291 0.678,-0.291 l 0,0 c 1.386,0 4.004,2.192 5.001,3.637 l 0,0 -0.522,0.594 -0.169,0.113 c -0.575,-0.532 -1.22,-1.033 -1.682,-1.315 l 0,0 -0.559,-0.348 0.067,0.656 c 0.003,0.033 0.009,0.11 2.366,9.534 l 0,0 c 0.327,1.368 0.352,2.214 0.038,2.588 l 0,0 c -0.126,0.173 -0.289,0.253 -0.536,0.253 l 0,0 c -0.963,0 -3.339,-1.415 -5.209,-3.439 M 476.439,60.674 c 0,-0.977 0.639,-1.657 1.559,-1.657 l 0,0 c 1.063,0 1.929,0.949 1.929,2.113 l 0,0 c 0,0.824 -0.481,1.652 -1.564,1.652 l 0,0 c -1.188,0 -1.924,-1.098 -1.924,-2.108" /></clipPath><linearGradient
       id="linearGradient76"
       spreadMethod="pad"
       gradientTransform="matrix(-9e-7,-19.830454,-19.830454,9e-7,601.1123,86.158203)"
       gradientUnits="userSpaceOnUse"
       y2="0"
       x2="1"
       y1="0"
       x1="0"><stop
         id="stop78"
         offset="0"
         style="stop-opacity:1;stop-color:#cc953d" /><stop
         id="stop80"
         offset="0.66129"
         style="stop-opacity:1;stop-color:#f8df8d" /><stop
         id="stop82"
         offset="1"
         style="stop-opacity:1;stop-color:#cc953d" /></linearGradient><clipPath
       id="clipPath90"
       clipPathUnits="userSpaceOnUse"><path
         id="path92"
         d="m 0,232.488 804.027,0 L 804.027,0 0,0 0,232.488 Z" /></clipPath></defs><g
     transform="matrix(1.25,0,0,-1.25,0,290.61)"
     id="g10"><g
       id="g12"><g
         clip-path="url(#clipPath16)"
         id="g14"><g
           id="g20"><g
             id="g22"><path
               id="path36"
               style="fill:url(#linearGradient24);stroke:none"
               d="m 227.641,141.58 0.716,-4.104 10.509,5.831 c 0,-17.149 -5.677,-38.397 -18.689,-54.258 l 0,0 c 1.358,-0.047 2.709,-0.139 4.041,-0.296 l 0,0 c 1.985,-0.23 3.881,-0.38 5.729,-0.467 l 0,0 c 18.178,23.185 23.142,55.396 16.591,69.531 l 0,0 c -6.809,-6.482 -12.86,-11.661 -18.897,-16.237 M 79.901,88.286 c 1.85,0.087 3.743,0.237 5.734,0.467 l 0,0 c 1.326,0.157 2.686,0.249 4.038,0.296 l 0,0 C 76.659,104.91 70.982,126.158 70.986,143.307 l 0,0 10.504,-5.831 0.718,4.104 c -6.036,4.576 -12.096,9.755 -18.896,16.237 l 0,0 C 56.756,143.682 61.724,111.471 79.901,88.286 m 110.465,29.943 C 169.753,106.604 157.564,78.921 154.93,50.798 l 0,0 c 1.883,0.273 3.69,0.474 5.454,0.628 l 0,0 c 16.133,14.772 39.402,26.193 51.511,26.873 l 0,0 c 12.113,0.681 28.835,-3.938 30.027,-14.385 l 0,0 C 243.098,53.582 231.225,49.585 218.505,48.915 l 0,0 c -6.194,-0.191 -11.79,0.824 -17.547,1.906 l 0,0 c -14.579,2.73 -28.224,4.079 -31.205,3.805 l 0,0 -4.122,-2.888 -0.009,-0.002 c 12.859,0.387 22.513,-2.082 31.361,-4.559 l 0,0 c 10.411,-2.905 19.704,-5.816 31.763,-4.062 l 0,0 c 13.291,1.943 22.659,9.729 21.918,21.431 l 0,0 c -0.374,5.752 -3.065,9.525 -6.908,11.941 l 0,0 c 8.717,0.368 17.895,2.376 29.086,6.567 l 0,0 c -0.998,-2.547 -2.201,-5.296 -3.639,-8.134 l 0,0 c -3.104,-5.651 -6.724,-11.879 -15.584,-18.718 l 0,0 c 0,0 -2.307,-3.876 -4.971,-6.574 l 0,0 c -0.058,-0.035 -0.1,-0.071 -0.148,-0.114 l 0,0 c 18.62,9.422 27.287,26.155 37.288,52.473 l 0,0 C 258.404,87.052 242.59,83.666 223.881,85.811 l 0,0 c -19.163,2.212 -38.928,-7.263 -56.744,-22.963 l 0,0 c 3.714,21.076 13.036,40.188 28.038,50.338 l 0,0 c 8.076,5.448 14.857,10.1 21.057,14.723 l 0,0 c -0.335,-10.659 -2.071,-26.36 -8.528,-39.834 l 0,0 c 2.603,0.492 5.242,0.813 7.913,0.939 l 0,0 c 7.957,17.793 9.011,40.563 9.063,50.36 l 0,0 c -10.034,-7.308 -20.351,-13.272 -34.314,-21.145 M 94.233,89.014 c 2.671,-0.126 5.311,-0.447 7.913,-0.939 l 0,0 c -6.459,13.474 -8.197,29.175 -8.528,39.834 l 0,0 c 6.195,-4.623 12.983,-9.275 21.056,-14.723 l 0,0 c 15.01,-10.15 24.322,-29.262 28.035,-50.338 l 0,0 0,-0.012 c -17.817,15.711 -37.575,25.187 -56.74,22.975 l 0,0 c -18.707,-2.145 -34.52,1.241 -61.907,16.176 l 0,0 C 35.91,70.814 45.873,53.087 72.755,45.032 l 0,0 c 2.703,-0.801 5.251,-1.396 7.673,-1.798 l 0,0 c 0.019,-0.003 0.034,-0.011 0.045,-0.011 l 0,0 c 9.47,-1.579 17.068,-0.359 24.642,1.603 l 0,0 c 0,0 -6.29,0.591 -8.509,1.307 l 0,0 C 82.271,45.726 69.785,50.674 61.33,56.189 l 0,0 C 51.682,62.482 44.319,69.763 41.241,81.541 l 0,0 C 57.693,75.935 69.852,75.345 83.428,77.81 l 0,0 c 21.123,3.833 43.584,-6.626 63.598,-24.202 l 0,0 c -0.878,0.055 -1.744,0.109 -2.59,0.137 l 0,0 c -12.261,10.258 -23.443,15.166 -36.183,19.331 l 0,0 c -5.162,1.688 -15.134,2.367 -18.455,1.374 l 0,0 C 82.242,72.193 79.333,67.602 80.869,61.252 l 0,0 C 82.698,53.701 93.9,48.717 106.979,47.617 l 0,0 c 2.356,-0.194 8.378,0.278 11.427,0.924 l 0,0 c 9.182,1.93 18.818,4.041 32.188,2.772 l 0,0 c 0.116,-0.014 0.223,-0.024 0.34,-0.04 l 0,0 c 0.542,-0.052 1.091,-0.111 1.642,-0.175 l 0,0 c 0.776,-0.092 1.555,-0.194 2.354,-0.3 l 0,0 c -2.647,28.123 -14.837,55.806 -35.451,67.431 l 0,0 c -13.959,7.873 -24.267,13.837 -34.31,21.145 l 0,0 c 0.052,-9.797 1.107,-32.567 9.064,-50.36 M 92.921,63.923 c 0.99,8.349 12.236,5.919 16.628,4.881 l 0,0 c 12.284,-2.892 19.165,-8.069 28.834,-14.869 l 0,0 c -7.116,0.216 -11.973,-0.587 -16.347,-1.397 l 0,0 c -3.867,-0.714 -7.362,-1.431 -11.721,-1.431 l 0,0 -0.308,0 c -3.076,0.02 -18.328,2.347 -17.086,12.816 m 136.77,68.336 c -0.26,-5.5 -0.839,-12.562 -2.102,-20.091 l 0,0 c 2.943,7.508 4.686,15.118 5.506,21.985 l 0,0 -3.404,-1.894 z M 82.262,112.176 c -1.264,7.521 -1.843,14.583 -2.101,20.083 l 0,0 -3.409,1.894 c 0.816,-6.867 2.564,-14.477 5.51,-21.977 m 24.568,-21.856 0.583,-1.207 c 8.762,-2.401 17.702,-6.715 26.598,-12.851 l 0,0 c -4.801,14.554 -12.572,26.074 -22.248,32.606 l 0,0 c -4.556,3.071 -8.533,5.786 -12.146,8.316 l 0,0 c 0.999,-8.548 3.087,-18.232 7.213,-26.864 m 91.258,18.548 c -9.669,-6.532 -17.447,-18.049 -22.252,-32.6 l 0,0 c 8.895,6.13 17.843,10.451 26.605,12.845 l 0,0 0.576,1.207 c 4.129,8.632 6.212,18.316 7.217,26.856 l 0,0 c -3.622,-2.522 -7.595,-5.237 -12.146,-8.308 m 55.96,-36.489 c 1.003,-2.214 1.598,-4.658 1.781,-7.315 l 0,0 c 3.296,3.332 5.426,6.463 7.091,9.293 l 0,0 c -3.05,-0.829 -5.997,-1.486 -8.872,-1.978 M 64.174,60.551 c 3.116,-2.038 8.233,-4.878 14.881,-6.877 l 0,0 c -1.539,1.857 -2.659,3.969 -3.239,6.353 l 0,0 c -1.07,4.412 -0.539,8.377 1.419,11.642 l 0,0 c -2.818,-0.301 -5.552,-0.446 -8.244,-0.446 l 0,0 c -6.067,0 -12.174,0.734 -18.683,2.269 l 0,0 c 3.01,-4.674 7.442,-8.76 13.866,-12.941 M 212.188,73.103 C 204.977,72.694 191.837,67.365 179.235,59.28 l 0,0 c 6.209,-0.646 14.422,-1.801 22.686,-3.34 l 0,0 c 4.836,-0.913 9.836,-1.845 15.078,-1.845 l 0,0 c 0.44,0 0.889,0.007 1.347,0.017 l 0,0 c 8.36,0.443 14.892,2.438 17.346,5.341 l 0,0 c 0.914,1.085 1.238,2.28 1.058,3.876 l 0,0 c -0.664,5.886 -12.156,9.83 -22.468,9.83 l 0,0 c -0.714,0 -1.415,-0.015 -2.094,-0.056 M 98.087,63.31 c -0.139,-1.171 0.119,-2.022 0.862,-2.869 l 0,0 c 2.486,-2.819 9.037,-4.114 11.099,-4.127 l 0,0 0.267,-0.004 c 3.549,0 6.497,0.547 9.914,1.184 l 0,0 c 0.877,0.157 1.775,0.329 2.715,0.492 l 0,0 c -4.282,2.455 -8.776,4.382 -14.585,5.759 l 0,0 c -1.282,0.298 -4.257,1.002 -6.879,1.002 l 0,0 c -3.218,0 -3.315,-0.794 -3.393,-1.437" /></g></g></g></g><g
       id="g38"><g
         clip-path="url(#clipPath42)"
         id="g40"><g
           id="g46"><g
             id="g48"><path
               id="path62"
               style="fill:url(#linearGradient50);stroke:none"
               d="m 142.973,193.881 c 0,-1.56 0.36,-3.038 0.995,-4.376 l 0,0 c 0.994,0.625 5.053,2.947 10.922,2.947 l 0,0 c 5.863,0 9.932,-2.322 10.922,-2.947 l 0,0 c 0.63,1.338 0.994,2.816 0.994,4.376 l 0,0 c 0,6.05 -5.338,10.958 -11.916,10.958 l 0,0 c -6.583,0 -11.917,-4.908 -11.917,-10.958 m 2.454,-6.96 c 7.359,-6.786 5.451,-18.933 4.907,-26.393 l 0,0 c -0.565,-7.724 -4.307,-17.753 -8.352,-28.557 l 0,0 c 8.58,0.96 17.235,0.96 25.816,0 l 0,0 c -4.041,10.804 -7.789,20.833 -8.349,28.557 l 0,0 c -0.544,7.46 -2.457,19.607 4.906,26.393 l 0,0 c 0,0 -3.684,2.58 -9.465,2.58 l 0,0 c -5.782,0 -9.463,-2.58 -9.463,-2.58 m -4.331,-57.333 c -2.407,-6.434 -4.832,-13.095 -6.694,-19.663 l 0,0 c 9.372,-10.207 16.541,-24.51 20.528,-41.066 l 0,0 c 3.975,16.528 11.118,30.809 20.466,41.009 l 0,0 c -1.871,6.593 -4.298,13.272 -6.711,19.72 l 0,0 c -4.58,0.56 -9.184,0.847 -13.795,0.847 l 0,0 c -4.607,0 -9.214,-0.287 -13.794,-0.847" /></g></g></g></g><g
       id="g64"><g
         clip-path="url(#clipPath68)"
         id="g66"><g
           id="g72"><g
             id="g74"><path
               id="path84"
               style="fill:url(#linearGradient76);stroke:none"
               d="m 673.717,88.934 c -1.344,-0.461 -2.691,-0.826 -4.114,-1.094 l 0,0 0.092,-1.003 0.951,0 c 0.66,0 0.815,-0.028 0.926,-0.107 l 0,0 0.071,-0.044 0.042,-0.081 c 0.07,-0.139 0.109,-0.34 -0.106,-1.423 l 0,0 C 670.45,79.296 669.19,73.398 668.172,68.658 l 0,0 -0.206,-0.948 -0.539,-2.677 0.416,-0.299 0.014,0.004 c 0.501,0.175 1.137,0.377 1.917,0.606 l 0,0 0.543,0.175 c 0.223,1.213 0.621,3.174 0.919,4.636 l 0,0 0.294,1.346 c 1.615,2.876 5.134,6.193 6.848,6.451 l 0,0 0.309,0.047 0.056,-0.31 c 0.059,-0.304 -0.01,-0.91 -0.21,-1.788 l 0,0 -1.757,-7.749 c -0.384,-1.62 -0.384,-2.633 -0.004,-3.104 l 0,0 c 0.173,-0.221 0.419,-0.334 0.727,-0.334 l 0,0 c 1.06,0 3.145,1.217 4.944,3.49 l 0,0 -0.279,0.33 -0.274,0.439 -0.061,-0.092 -0.095,0.122 c -0.799,-0.768 -1.458,-1.158 -1.713,-1.288 l 0,0 -0.585,-0.315 0.115,0.651 0.086,0.489 1.73,7.446 c 0.589,2.498 0.288,3.535 -0.077,3.974 l 0,0 c -0.238,0.306 -0.58,0.466 -1.022,0.466 l 0,0 c -0.631,0 -1.467,-0.27 -2.306,-0.739 l 0,0 c -0.402,-0.197 -2.48,-1.332 -4.646,-3.831 l 0,0 -0.119,-0.147 c -0.091,-0.1 -0.183,-0.208 -0.272,-0.333 l 0,0 -0.585,0.263 2.644,12.188 c 0.146,0.702 0.161,0.989 -0.082,1.276 l 0,0 -0.234,0.071 c -0.173,0 -0.475,-0.089 -0.951,-0.24 m -146.739,-2.62 0.394,-1.093 0.471,0.073 c 0.631,0.919 1.239,1.11 1.636,1.11 l 0,0 c 0.635,0 0.931,-0.305 0.931,-0.957 l 0,0 c 0,-0.547 -0.498,-1.195 -0.987,-1.826 l 0,0 -0.084,-0.096 c -0.347,-0.459 -0.563,-0.793 -0.72,-1.134 l 0,0 c -0.085,-0.153 -0.154,-0.276 -0.128,-0.644 l 0,0 0.919,-0.168 0.144,0.085 c 0.279,0.42 0.703,0.82 1.242,1.336 l 0,0 c 0.945,0.891 2.017,1.906 2.017,3.288 l 0,0 c 0,1 -0.599,2.066 -2.268,2.066 l 0,0 c -1.906,0 -3.422,-1.862 -3.567,-2.04 m 112.432,1.162 -0.093,-0.447 c 0.84,-1.457 1.866,-3.378 2.839,-5.232 l 0,0 0.178,-0.345 1.222,0.56 -0.501,2.098 c -0.207,0.813 -0.418,1.652 -0.638,2.43 l 0,0 c -0.083,0.357 -0.221,0.999 -0.286,1.29 l 0,0 -0.329,0.172 c -0.711,-0.022 -1.983,-0.297 -2.392,-0.526 m -51.635,0 -0.115,-0.457 c 0.917,-1.532 1.968,-3.524 2.965,-5.444 l 0,0 0.073,-0.129 1.212,0.566 -0.337,1.422 -0.164,0.655 c -0.206,0.822 -0.408,1.658 -0.639,2.438 l 0,0 c -0.09,0.364 -0.225,1.021 -0.293,1.308 l 0,0 -0.324,0.167 C 589.469,87.98 588.159,87.7 587.775,87.476 M 450.771,74.316 c 0,-5.887 3.94,-9.697 10.04,-9.697 l 0,0 c 2.073,0 3.927,0.459 5.573,0.872 l 0,0 c 0.516,0.116 1.034,0.253 1.656,0.563 l 0,0 c -0.099,0.667 -0.045,1.536 0.165,2.578 l 0,0 0.522,2.772 c 0.445,2.349 0.537,2.459 2.463,2.88 l 0,0 0.107,1.038 -0.07,0.01 -8.283,-0.157 -0.029,-1.07 c 1.823,-0.132 2.562,-0.295 2.833,-0.654 l 0,0 c 0.24,-0.339 0.126,-1.005 -0.073,-1.983 l 0,0 -0.65,-3.144 c -0.408,-1.968 -2.26,-2.194 -3.617,-2.194 l 0,0 c -4.363,0 -7.073,3.22 -7.073,8.421 l 0,0 c 0,5.608 3.457,11.57 9.863,11.57 l 0,0 c 3.522,0 5.103,-1.516 5.276,-4.956 l 0,0 0.083,-0.203 1.112,0.228 c 0.062,1.088 0.137,2.083 0.206,2.94 l 0,0 0.027,0.394 c 0.056,0.77 0.107,1.429 0.049,2.024 l 0,0 0,0.011 -0.043,0.018 c -0.844,0.286 -3.078,1.049 -5.909,1.049 l 0,0 c -8.378,0 -14.228,-5.47 -14.228,-13.31 m 203.628,10.349 c 0.008,-0.935 0.662,-1.613 1.546,-1.613 l 0,0 c 1.075,0 1.951,0.949 1.951,2.099 l 0,0 c -0.018,0.275 -0.153,1.667 -1.497,1.667 l 0,0 c -1.288,0 -2,-1.276 -2,-2.153 m -161.141,0.011 c 0.036,-0.956 0.678,-1.624 1.568,-1.624 l 0,0 c 1.063,0 1.927,0.949 1.927,2.099 l 0,0 c -0.047,1.01 -0.642,1.667 -1.493,1.667 l 0,0 c -1.291,0 -2.001,-1.276 -2.002,-2.142 m 80.996,-1.93 -0.543,-2.917 -2.17,-0.089 -0.848,-1.152 0.259,-0.41 2.285,0.117 -1.958,-8.966 c -0.569,-2.685 -0.256,-3.798 0.117,-4.254 l 0,0 c 0.19,-0.234 0.456,-0.361 0.765,-0.361 l 0,0 c 1.774,0 4.372,2.28 5.489,3.856 l 0,0 -0.338,0.311 -0.264,0.351 -0.103,0.075 -0.015,-0.018 c -0.656,-0.719 -1.921,-1.569 -2.666,-1.798 l 0,0 -0.401,-0.121 -0.019,0.414 c -0.01,0.288 0.039,0.75 0.171,1.397 l 0,0 1.805,9.011 3.447,0.234 0.505,0.785 0.311,0.603 -3.29,-0.078 -0.519,-0.157 1.083,5.254 -0.473,0.177 -2.63,-2.264 z m 125.547,0.022 c 0,-0.644 0.383,-0.816 0.761,-0.941 l 0,0 c 0.379,-0.08 0.813,-0.17 0.865,-0.629 l 0,0 c 0,-0.458 -0.953,-0.864 -2.795,-1.203 l 0,0 -1.19,-0.345 c -0.186,-0.835 -0.926,-4.203 -1.225,-5.517 l 0,0 c -1.249,-2.332 -4.949,-6.798 -6.74,-6.816 l 0,0 -0.331,0 0,0.265 c -0.116,0.322 -0.081,0.931 0.101,1.747 l 0,0 c 0.45,1.876 0.885,3.819 1.307,5.716 l 0,0 0.51,2.265 c 0.385,1.554 0.405,2.343 0.074,2.806 l 0,0 -0.315,0.119 -0.368,0.191 c -0.962,-0.064 -2.987,-1.245 -4.957,-3.4 l 0,0 0.261,-0.349 0.232,-0.419 0.048,-0.048 0.073,0.06 0.035,-0.054 c 0.655,0.522 1.221,0.941 1.695,1.247 l 0,0 0.577,0.366 -0.081,-0.684 c -0.004,-0.063 -0.022,-0.138 -0.074,-0.313 l 0,0 -1.784,-7.654 c -0.479,-1.951 -0.446,-3.247 0.102,-3.942 l 0,0 c 0.263,-0.338 0.666,-0.522 1.156,-0.522 l 0,0 c 0.83,0 1.843,0.389 2.789,1.071 l 0,0 c 1.315,0.911 2.669,2.223 3.937,3.823 l 0,0 0.311,0.367 0.785,0.909 -0.224,-1.175 c -0.07,-0.413 -0.163,-0.809 -0.227,-1.114 l 0,0 -0.029,-0.124 c -0.422,-1.827 -0.43,-2.952 -0.032,-3.446 l 0,0 c 0.161,-0.214 0.388,-0.311 0.694,-0.311 l 0,0 c 1.187,0 3.461,1.677 4.964,3.658 l 0,0 -0.298,0.338 -0.265,0.439 -0.078,0.081 -0.016,-0.017 -0.014,0.012 -0.021,-0.019 c -0.773,-0.814 -1.576,-1.326 -1.813,-1.463 l 0,0 -0.561,-0.291 0.083,0.665 c 0.008,0.129 0.034,0.29 0.067,0.515 l 0,0 c 0.767,3.908 1.359,6.484 2.039,9.476 l 0,0 0.055,0.239 0.089,0.451 0.178,0.062 c 2.164,0.769 3.213,1.937 3.213,3.566 l 0,0 c 0,1.246 -0.675,2.031 -1.765,2.031 l 0,0 c -0.866,0 -1.798,-0.678 -1.798,-1.689 m -104.456,0 c 0,-0.494 0.232,-0.784 0.769,-0.941 l 0,0 c 0.423,-0.088 0.783,-0.194 0.872,-0.629 l 0,0 c 0,-0.46 -0.953,-0.871 -2.804,-1.203 l 0,0 -1.204,-0.342 c -0.324,-1.531 -0.645,-3.004 -0.917,-4.254 l 0,0 -0.29,-1.266 c -1.283,-2.389 -4.924,-6.798 -6.759,-6.816 l 0,0 -0.33,0 0,0.265 c -0.115,0.322 -0.079,0.92 0.097,1.732 l 0,0 c 0.314,1.286 0.606,2.579 0.907,3.893 l 0,0 c 0.18,0.805 0.365,1.615 0.554,2.439 l 0,0 0.369,1.669 c 0.369,1.515 0.402,2.274 0.083,2.798 l 0,0 -0.338,0.13 -0.349,0.183 c -0.961,-0.067 -2.993,-1.245 -4.961,-3.391 l 0,0 0.271,-0.361 0.23,-0.416 0.012,-0.013 0.055,0.048 0.059,-0.085 c 0.794,0.636 1.321,0.995 1.698,1.247 l 0,0 0.584,0.392 -0.079,-0.695 c -0.002,-0.025 -0.012,-0.097 -0.597,-2.58 l 0,0 c 0,0 -0.866,-3.753 -1.272,-5.411 l 0,0 c -0.46,-1.93 -0.426,-3.252 0.105,-3.925 l 0,0 c 0.268,-0.344 0.672,-0.522 1.167,-0.522 l 0,0 c 0.843,0 1.853,0.389 2.793,1.071 l 0,0 c 1.36,0.947 2.86,2.382 4.214,4.035 l 0,0 0.572,-0.272 c -0.069,-0.318 -0.144,-0.683 -0.241,-1.077 l 0,0 c -0.423,-1.827 -0.435,-2.952 -0.026,-3.446 l 0,0 c 0.148,-0.198 0.392,-0.311 0.693,-0.311 l 0,0 c 1.205,0 3.474,1.677 4.96,3.665 l 0,0 -0.27,0.295 -0.153,0.236 -0.17,0.197 -0.031,0.042 -0.063,0.064 -0.007,-0.014 c -0.634,-0.65 -1.344,-1.176 -1.804,-1.456 l 0,0 -0.626,-0.382 0.137,0.711 c 0.026,0.137 0.052,0.314 0.087,0.56 l 0,0 c 0.741,3.866 1.312,6.315 2.025,9.415 l 0,0 0.117,0.505 0,0.229 0.218,0.079 c 2.18,0.8 3.196,1.937 3.196,3.566 l 0,0 c 0,1.246 -0.659,2.031 -1.734,2.031 l 0,0 c -0.882,0 -1.819,-0.678 -1.819,-1.689 M 715.128,82.51 c 0,-0.489 0.268,-0.816 0.778,-0.964 l 0,0 c 0.354,-0.062 0.789,-0.128 0.857,-0.6 l 0,0 c 0,-0.451 -0.707,-0.92 -1.893,-0.92 l 0,0 c -0.474,0 -0.852,0.077 -1.192,0.147 l 0,0 -0.109,0.026 c -0.42,0.149 -0.935,0.227 -1.55,0.227 l 0,0 c -1,0 -2.401,-0.418 -3.657,-1.092 l 0,0 c -2.502,-1.33 -5.171,-4.454 -5.171,-9.24 l 0,0 c 0,-1.261 0.333,-5.38 4.569,-5.38 l 0,0 c 1.723,0 3.584,0.764 5.247,2.145 l 0,0 c 2.204,1.844 3.629,5.058 3.629,8.192 l 0,0 c 0,1.092 -0.216,1.975 -0.698,2.858 l 0,0 -0.063,0.132 c -0.052,0.084 -0.101,0.184 -0.161,0.294 l 0,0 -0.222,0.351 0.395,0.123 c 1.817,0.598 2.818,1.794 2.818,3.365 l 0,0 c 0,1.262 -0.67,2.05 -1.765,2.05 l 0,0 c -0.874,0 -1.812,-0.689 -1.812,-1.714 m -8.793,-12.266 c 0,4.969 2.109,7.727 3.422,8.279 l 0,0 c 0.283,0.143 0.673,0.305 1.195,0.305 l 0,0 c 1.576,0 2.552,-1.475 2.552,-3.844 l 0,0 c 0,-4.26 -1.841,-7.677 -3.556,-8.411 l 0,0 c -0.318,-0.124 -0.624,-0.172 -0.987,-0.172 l 0,0 c -1.62,0 -2.626,1.472 -2.626,3.843 M 485.162,82.51 c 0,-0.489 0.266,-0.816 0.774,-0.964 l 0,0 c 0.418,-0.068 0.784,-0.132 0.859,-0.6 l 0,0 c 0,-0.383 -0.59,-0.92 -1.905,-0.92 l 0,0 c -0.473,0 -0.852,0.08 -1.112,0.133 l 0,0 -0.166,0.04 c -0.406,0.14 -0.972,0.227 -1.553,0.227 l 0,0 c -1.011,0 -2.382,-0.409 -3.666,-1.092 l 0,0 c -2.496,-1.31 -5.16,-4.429 -5.16,-9.24 l 0,0 c 0,-3.419 1.668,-5.38 4.567,-5.38 l 0,0 c 1.729,0 3.583,0.764 5.219,2.145 l 0,0 c 2.211,1.839 3.641,5.054 3.641,8.192 l 0,0 c 0,1.117 -0.208,2.004 -0.691,2.88 l 0,0 c -0.064,0.134 -0.133,0.25 -0.228,0.404 l 0,0 -0.214,0.351 0.396,0.123 c 1.811,0.592 2.814,1.79 2.814,3.365 l 0,0 c 0,1.262 -0.668,2.05 -1.741,2.05 l 0,0 c -0.884,0 -1.834,-0.689 -1.834,-1.714 m -8.79,-12.266 c 0,4.973 2.099,7.727 3.413,8.279 l 0,0 c 0.285,0.143 0.691,0.305 1.211,0.305 l 0,0 c 1.58,0 2.52,-1.439 2.52,-3.844 l 0,0 c 0,-4.26 -1.827,-7.677 -3.533,-8.411 l 0,0 c -0.3,-0.121 -0.617,-0.172 -0.993,-0.172 l 0,0 c -1.617,0 -2.618,1.472 -2.618,3.843 m 263.737,8.495 c -1.797,-1.424 -2.871,-3.561 -2.871,-5.714 l 0,0 c 0,-1.891 0.74,-3.209 2.166,-3.826 l 0,0 0.603,-0.219 -0.529,-0.36 c -0.928,-0.643 -1.36,-1.179 -1.36,-1.704 l 0,0 c -0.036,-0.348 0.194,-0.758 0.632,-1.112 l 0,0 0.5,-0.485 -0.394,-0.204 c -3.489,-1.855 -5.065,-3.286 -5.094,-4.643 l 0,0 c -0.032,-0.713 0.262,-1.418 0.84,-2.03 l 0,0 c 1.113,-1.156 3.135,-1.883 5.28,-1.883 l 0,0 c 3.203,0 8.04,1.971 8.04,4.934 l 0,0 c 0,1.505 -1.325,2.834 -4.596,4.582 l 0,0 c -1.02,0.522 -2.251,1.248 -2.31,1.783 l 0,0 c 0,0.248 0.113,0.528 0.329,0.8 l 0,0 0.077,0.102 0.118,0.023 c 2.404,0.442 3.946,1.605 4.379,1.956 l 0,0 c 0.435,0.327 2.585,2.085 2.585,5.211 l 0,0 c 0,0.568 -0.054,0.97 -0.176,1.298 l 0,0 -0.129,0.368 0.385,0.062 c 0.125,0.026 0.227,0.05 0.389,0.084 l 0,0 c 0.358,0.059 1.332,0.36 2.479,1.817 l 0,0 -0.478,0.674 c -0.424,-0.274 -1.43,-0.724 -3.412,-0.807 l 0,0 -0.126,-0.009 -0.092,0.081 c -0.736,0.588 -1.728,0.908 -2.862,0.908 l 0,0 c -1.344,0 -3.06,-0.663 -4.373,-1.687 m 0.011,-5.484 c 0,1.588 0.451,3.138 1.236,4.245 l 0,0 c 0.62,0.904 1.454,1.423 2.288,1.423 l 0,0 c 1.27,0 2.057,-1.181 2.057,-3.077 l 0,0 c 0,-3.357 -1.859,-5.43 -3.587,-5.43 l 0,0 c -1.21,0 -1.994,1.112 -1.994,2.839 m -3.268,-12.221 c 0,1.064 1.23,2.286 3.378,3.354 l 0,0 0.157,0.075 0.141,-0.083 c 0.305,-0.162 1.231,-0.656 2.253,-1.303 l 0,0 c 1.613,-0.928 2.364,-1.726 2.364,-2.502 l 0,0 c 0,-1.122 -1.471,-2.279 -3.928,-2.279 l 0,0 c -2.403,0 -4.365,1.226 -4.365,2.738 m -6.705,18.619 c -0.573,-0.333 -2.6,-1.628 -4.9,-4.475 l 0,0 -0.579,0.278 0.25,1.069 c 0.501,1.974 0.515,3.05 0.042,3.652 l 0,0 -0.184,0.043 -0.372,0.206 c -0.974,-0.067 -2.931,-1.263 -4.753,-3.431 l 0,0 0.315,-0.371 0.268,-0.414 0.06,-0.067 0.015,0.003 0.003,-0.01 0.028,0.022 c 0.594,0.58 1.203,1.029 1.538,1.24 l 0,0 0.539,0.33 -0.037,-0.636 c -0.007,-0.148 -0.052,-0.333 -0.123,-0.624 l 0,0 c -0.652,-2.96 -1.414,-6.12 -2.208,-9.354 l 0,0 -0.442,-2.081 0.38,-0.299 0.008,0 c 0.459,0.179 1.121,0.381 1.899,0.61 l 0,0 0.593,0.195 0,0.009 c 0.289,1.481 0.663,2.992 1.014,4.457 l 0,0 0.272,1.118 c 1.658,2.826 5.465,6.85 6.81,6.876 l 0,0 0.143,0.002 0.096,-0.101 c 0.217,-0.217 0.183,-0.927 -0.096,-2.115 l 0,0 -0.82,-3.365 c 0,0 -0.674,-2.827 -0.983,-4.028 l 0,0 c -0.414,-1.788 -0.415,-2.853 -0.021,-3.354 l 0,0 c 0.175,-0.217 0.409,-0.324 0.725,-0.324 l 0,0 c 0.893,0 2.785,1.09 4.822,3.495 l 0,0 -0.332,0.378 -0.252,0.371 -0.041,-0.058 -0.113,0.141 c -0.613,-0.582 -1.17,-1.026 -1.557,-1.269 l 0,0 -0.608,-0.372 0.114,0.706 c 0,0 0.071,0.301 0.09,0.443 l 0,0 c 0.283,1.101 0.546,2.236 0.851,3.535 l 0,0 c 0,0 0.564,2.382 0.8,3.341 l 0,0 c 0.553,2.422 0.563,3.923 0.041,4.583 l 0,0 c -0.231,0.268 -0.553,0.418 -0.955,0.418 l 0,0 c -0.681,0 -1.421,-0.249 -2.34,-0.773 m -79.366,-2.666 0.352,-0.579 0.097,-0.101 0.055,-0.034 0.068,-0.093 0.111,0.078 0.013,-0.013 c 0.687,0.566 1.25,0.92 1.556,1.114 l 0,0 0.566,0.354 -0.066,-0.666 c -0.006,-0.03 -0.011,-0.106 -2.146,-8.861 l 0,0 c -0.418,-1.674 -0.449,-2.715 -0.102,-3.173 l 0,0 c 0.173,-0.202 0.4,-0.299 0.697,-0.299 l 0,0 c 1.372,0 4.005,2.192 4.999,3.626 l 0,0 -0.566,0.687 -0.05,0.066 -0.063,-0.027 c -0.567,-0.532 -1.232,-1.041 -1.692,-1.321 l 0,0 -0.558,-0.33 0.066,0.645 c 0.005,0.028 0.01,0.101 2.368,9.518 l 0,0 c 0.321,1.411 0.34,2.23 0.025,2.605 l 0,0 c -0.112,0.156 -0.29,0.243 -0.525,0.243 l 0,0 c -0.843,0 -3.173,-1.231 -5.205,-3.439 m -3.378,3.42 -2.43,-0.996 c -0.281,-1.387 -0.567,-2.64 -0.82,-3.746 l 0,0 -0.351,-1.532 c -1.206,-2.269 -4.969,-6.798 -6.739,-6.816 l 0,0 -0.173,0 -0.093,0.141 c -0.092,0.12 -0.263,0.55 0.024,1.849 l 0,0 1.84,8.008 c 0.411,1.684 0.411,2.381 -0.004,2.868 l 0,0 -0.254,0.06 -0.348,0.183 c -0.968,-0.064 -2.995,-1.245 -4.982,-3.391 l 0,0 0.264,-0.358 0.232,-0.422 0.043,-0.047 0.056,0.03 0.033,-0.039 c 0.696,0.552 1.289,0.988 1.726,1.241 l 0,0 0.563,0.334 -0.076,-0.652 c -0.003,-0.024 -0.003,-0.087 -1.87,-7.954 l 0,0 c -0.443,-1.937 -0.402,-3.259 0.128,-3.932 l 0,0 c 0.268,-0.344 0.657,-0.522 1.147,-0.522 l 0,0 c 0.852,0 1.844,0.378 2.793,1.071 l 0,0 c 1.405,0.98 2.873,2.424 4.243,4.18 l 0,0 0.574,-0.256 c -0.042,-0.257 -0.107,-0.512 -0.172,-0.794 l 0,0 -0.105,-0.444 c -0.419,-1.823 -0.427,-2.952 -0.032,-3.438 l 0,0 c 0.179,-0.212 0.411,-0.319 0.708,-0.319 l 0,0 c 1.211,0 3.483,1.677 4.965,3.658 l 0,0 -0.263,0.302 -0.157,0.241 -0.036,0.043 -0.056,-0.033 -0.071,0.116 -0.01,-0.017 -0.115,0.154 c -0.774,-0.786 -1.52,-1.274 -1.804,-1.435 l 0,0 -0.626,-0.378 0.135,0.707 c 0.016,0.089 0.083,0.56 0.083,0.56 l 0,0 c 0.76,3.87 1.647,7.748 2.324,10.688 l 0,0 0.088,0.35 0.088,0.756 -0.47,-0.019 z m -21.088,-0.644 c -0.238,-0.126 -2.329,-1.296 -4.606,-4.054 l 0,0 c -0.121,-0.139 -0.229,-0.278 -0.339,-0.421 l 0,0 -0.583,0.261 c 0.466,2.294 0.429,3.79 -0.111,4.446 l 0,0 c -0.227,0.278 -0.558,0.431 -0.936,0.431 l 0,0 c -0.665,0 -1.307,-0.21 -2.156,-0.698 l 0,0 c -0.901,-0.522 -2.718,-1.772 -4.727,-4.253 l 0,0 -0.574,0.275 0.085,0.377 c 0.55,2.218 0.609,3.488 0.193,4.011 l 0,0 c -0.134,0.184 -0.358,0.288 -0.622,0.288 l 0,0 c -0.918,0 -2.924,-1.224 -4.841,-3.469 l 0,0 0.286,-0.339 0.253,-0.424 0.068,-0.067 0.069,0.041 0.01,-0.012 c 0.57,0.527 1.112,0.95 1.476,1.229 l 0,0 0.164,0.127 0.645,0.468 -0.131,-0.815 c -0.025,-0.17 -0.063,-0.388 -0.124,-0.697 l 0,0 c -0.674,-3.042 -1.507,-6.516 -2.702,-11.48 l 0,0 0.39,-0.254 0.007,0.004 c 0.6,0.215 1.301,0.416 2.491,0.733 l 0,0 c 0.475,2.168 0.941,4.23 1.364,5.694 l 0,0 c 1.054,2.09 5.054,6.859 6.589,6.867 l 0,0 0.162,0 0.102,-0.132 c 0.104,-0.138 0.292,-0.4 -0.168,-2.755 l 0,0 c -0.483,-2.186 -1.052,-4.502 -1.611,-6.745 l 0,0 -0.264,-1.065 -0.487,-2.34 0.365,-0.261 0.009,0.004 c 0.633,0.229 1.406,0.436 2.55,0.74 l 0,0 c 0.484,2.287 0.934,4.327 1.267,5.681 l 0,0 c 1.137,2.158 5.121,6.865 6.614,6.873 l 0,0 0.16,-0.007 0.107,-0.125 c 0.183,-0.222 0.159,-0.845 -0.064,-1.836 l 0,0 -1.829,-7.672 c -0.39,-1.767 -0.39,-2.861 0.006,-3.359 l 0,0 c 0.177,-0.218 0.402,-0.319 0.698,-0.319 l 0,0 c 0.83,0 2.983,1.21 4.84,3.483 l 0,0 -0.298,0.351 -0.262,0.406 -0.098,0.087 -0.029,-0.029 c -0.772,-0.705 -1.414,-1.092 -1.65,-1.233 l 0,0 -0.674,-0.364 0.199,0.746 c 0.045,0.169 1.247,5.275 1.705,7.22 l 0,0 c 0.563,2.408 0.578,3.963 0.054,4.627 l 0,0 c -0.235,0.277 -0.541,0.418 -0.937,0.418 l 0,0 c -0.659,0 -1.248,-0.191 -2.105,-0.663 m -71.128,0 c -0.371,-0.205 -1.713,-1.008 -3.399,-2.776 l 0,0 c -0.518,-0.506 -1.03,-1.065 -1.56,-1.713 l 0,0 -0.572,0.268 c 0.462,2.292 0.414,3.792 -0.119,4.453 l 0,0 c -0.245,0.278 -0.562,0.431 -0.946,0.431 l 0,0 c -0.667,0 -1.301,-0.21 -2.142,-0.698 l 0,0 c -0.643,-0.374 -1.954,-1.241 -3.46,-2.908 l 0,0 c -0.405,-0.427 -0.852,-0.929 -1.312,-1.498 l 0,0 -0.568,0.28 0.117,0.525 c 0.56,2.218 0.624,3.488 0.208,4.009 l 0,0 c -0.142,0.186 -0.364,0.29 -0.62,0.29 l 0,0 c -0.927,0 -2.945,-1.22 -4.846,-3.469 l 0,0 0.292,-0.346 0.247,-0.417 0.072,-0.067 0.038,0.019 0.012,-0.01 c 0.697,0.643 1.334,1.137 1.652,1.381 l 0,0 0.62,0.473 -0.095,-0.775 c -0.021,-0.152 -0.06,-0.383 -0.129,-0.747 l 0,0 c -0.674,-3.024 -1.486,-6.423 -2.618,-11.12 l 0,0 -0.088,-0.363 0.375,-0.251 0.012,0.004 c 0.712,0.25 1.468,0.453 2.342,0.68 l 0,0 0.173,0.053 c 0.446,2.072 0.919,4.201 1.347,5.688 l 0,0 c 1.039,2.096 5.05,6.865 6.606,6.873 l 0,0 0.162,0 0.094,-0.132 c 0.091,-0.111 0.309,-0.388 -0.183,-2.755 l 0,0 c -0.547,-2.566 -1.252,-5.386 -1.867,-7.872 l 0,0 -0.171,-0.7 -0.306,-1.578 0.387,-0.261 0.007,0 c 0.587,0.231 1.364,0.44 2.511,0.737 l 0,0 c 0.437,2.064 0.916,4.212 1.288,5.682 l 0,0 c 1.141,2.154 5.134,6.866 6.61,6.888 l 0,0 0.083,0 0.071,-0.037 c 0.11,-0.052 0.445,-0.222 0.07,-1.94 l 0,0 -1.851,-7.678 c -0.411,-1.742 -0.411,-2.838 -0.015,-3.353 l 0,0 c 0.174,-0.206 0.422,-0.319 0.715,-0.319 l 0,0 c 0.845,0 2.984,1.21 4.832,3.495 l 0,0 -0.301,0.339 -0.26,0.406 -0.1,0.092 -0.036,-0.034 c -0.517,-0.478 -1.123,-0.94 -1.62,-1.228 l 0,0 -0.648,-0.369 c 0,0 1.852,7.966 1.852,7.973 l 0,0 c 0.587,2.379 0.614,3.932 0.078,4.61 l 0,0 c -0.241,0.287 -0.548,0.428 -0.933,0.428 l 0,0 c -0.668,0 -1.259,-0.191 -2.108,-0.663 m -31.914,-1.945 c -2.432,-2.016 -4.075,-5.701 -4.075,-9.16 l 0,0 c 0,-2.708 1.096,-3.944 2.111,-3.944 l 0,0 c 0.867,0 1.983,0.532 3.213,1.541 l 0,0 c 1.09,0.902 2.064,1.897 2.878,2.958 l 0,0 c 0.095,0.104 0.177,0.208 0.25,0.308 l 0,0 0.577,-0.265 -0.284,-1.393 c -0.297,-1.529 -0.269,-2.433 0.088,-2.858 l 0,0 c 0.159,-0.19 0.391,-0.291 0.674,-0.291 l 0,0 c 0.92,0 3.235,1.333 5.011,3.734 l 0,0 -0.252,0.29 -0.131,0.232 -0.198,0.236 -0.037,-0.025 -0.024,0.044 -0.034,0.043 c -0.755,-0.755 -1.494,-1.26 -1.773,-1.438 l 0,0 -0.541,-0.351 0.035,0.649 c 0.012,0.151 0.046,0.397 0.117,0.693 l 0,0 c 0.774,4.295 1.787,8.892 2.259,10.919 l 0,0 -0.243,0.249 c -0.287,0 -0.621,0.071 -1.008,0.153 l 0,0 -0.215,0.047 c -0.772,0.157 -1.457,0.237 -2.084,0.237 l 0,0 c -1.964,0 -4.443,-1.025 -6.314,-2.608 m -0.96,-8.593 c 0,3.041 1.212,7.039 3.535,8.776 l 0,0 c 0.525,0.388 1.436,0.648 2.259,0.648 l 0,0 c 0.419,0 0.825,-0.057 1.181,-0.114 l 0,0 0.311,-0.046 c 0.068,-0.01 0.128,-0.013 0.223,-0.029 l 0,0 0.352,-0.04 -0.07,-0.346 c -0.236,-1.14 -0.694,-3.239 -1.014,-4.447 l 0,0 c -1.147,-2.32 -4.809,-6.413 -6.126,-6.413 l 0,0 -0.006,0 c -0.322,0.109 -0.645,0.768 -0.645,2.011 m -12.28,8.689 c -2.095,-1.928 -3.496,-5.196 -3.496,-8.119 l 0,0 c 0,-3.179 1.401,-5.081 3.749,-5.081 l 0,0 c 2.213,0 4.869,1.571 6.789,4 l 0,0 -0.537,0.654 -0.068,0.027 -0.091,0.104 -0.059,-0.069 c -0.906,-0.928 -2.922,-2.401 -4.489,-2.401 l 0,0 c -1.365,0 -2.202,1.307 -2.202,3.419 l 0,0 c 0,2.068 0.55,4.356 1.438,5.957 l 0,0 c 0.409,0.788 1.295,2.112 2.61,2.112 l 0,0 c 0.965,0 1.675,-0.412 2.362,-1.365 l 0,0 c 0.199,-0.247 0.401,-0.373 0.601,-0.373 l 0,0 c 0.109,0 0.233,0.04 0.362,0.126 l 0,0 c 0.869,0.454 1.175,1.188 1.175,1.701 l 0,0 c -0.039,0.879 -1.083,1.82 -2.709,1.82 l 0,0 c -1.68,0 -4.057,-1.297 -5.435,-2.512 m -20.392,-0.927 0.471,-0.658 0.198,-0.121 c 0.651,0.571 1.268,0.949 1.598,1.151 l 0,0 0.645,0.403 -0.16,-0.745 c -0.019,-0.089 -1.78,-7.37 -2.135,-8.831 l 0,0 c -0.42,-1.705 -0.443,-2.708 -0.09,-3.181 l 0,0 c 0.156,-0.19 0.388,-0.291 0.678,-0.291 l 0,0 c 1.386,0 4.004,2.192 5.001,3.637 l 0,0 -0.522,0.594 -0.169,0.113 c -0.575,-0.532 -1.22,-1.033 -1.682,-1.315 l 0,0 -0.559,-0.348 0.067,0.656 c 0.003,0.033 0.009,0.11 2.366,9.534 l 0,0 c 0.327,1.368 0.352,2.214 0.038,2.588 l 0,0 c -0.126,0.173 -0.289,0.253 -0.536,0.253 l 0,0 c -0.963,0 -3.339,-1.415 -5.209,-3.439 M 476.439,60.674 c 0,-0.977 0.639,-1.657 1.559,-1.657 l 0,0 c 1.063,0 1.929,0.949 1.929,2.113 l 0,0 c 0,0.824 -0.481,1.652 -1.564,1.652 l 0,0 c -1.188,0 -1.924,-1.098 -1.924,-2.108" /></g></g></g></g><g
       id="g86"><g
         clip-path="url(#clipPath90)"
         id="g88"><g
           transform="translate(373.4497,37.9668)"
           id="g94"><path
             id="path96"
             style="fill:#e92d8f;fill-opacity:1;fill-rule:nonzero;stroke:none"
             d="m 0,0 c -4.715,-2.364 -11.206,-3.725 -17.804,-3.725 -12.115,0 -25.591,4.781 -27.092,18.191 -1.163,5.854 2.541,13.753 6.732,18.982 5.581,6.605 17.261,9.94 34.685,9.94 10.671,0 23.15,-1.262 37.077,-3.77 C 34.217,39.51 34.82,39.393 35.38,39.327 26.422,22.663 17.503,8.244 0,0 m 45.47,66.038 c -0.293,-0.306 -0.572,-0.468 -0.787,-0.468 -0.062,0 -0.249,0 -0.495,0.31 -0.724,1.02 -0.803,3.475 -0.164,5.335 1.205,3.631 4.607,11.329 8.948,14.604 2.591,1.956 5.193,2.353 6.903,2.353 0.459,0 0.848,-0.016 1.222,-0.037 C 60.49,86.725 58.659,82.624 56.782,80.738 55.66,78.498 47.717,68.287 45.47,66.038 M 24.441,85.802 c 1.361,0.923 2.517,1.408 3.223,1.408 0.293,0 0.485,-0.067 0.618,-0.241 0.239,-0.312 0.42,-1.053 -0.036,-2.904 -0.823,-3.31 -4.053,-5.089 -6.673,-5.089 -0.889,0 -1.844,0.206 -2.599,0.587 0.306,1.21 3.319,5.174 5.467,6.239 M 81.655,58.648 c -0.038,0.122 -0.102,0.237 -0.375,0.475 l -0.07,-0.203 -0.028,0 0.04,0.223 -0.076,-0.223 -0.015,0 0.079,0.223 -0.117,0.025 0,0.017 -0.333,0.12 -0.062,-0.354 C 80.402,57.424 80.001,56.001 79.427,54.607 78.688,52.771 77.695,51.12 76.393,49.572 76.268,49.428 76.149,49.286 76.009,49.145 75.651,48.733 75.275,48.336 74.89,47.982 l -0.462,-0.39 c -5.263,-4.571 -13.447,-6.806 -25.064,-6.806 -2.027,0 -4.179,0.069 -6.429,0.154 L 42.59,40.956 42.439,40.94 c 1.61,2.694 3.237,5.491 4.962,8.542 2.017,3.703 4.643,8.315 7.5,13.335 6.424,11.301 13.721,24.112 15.319,28.957 1.245,3.69 0.841,5.798 0.279,6.926 -0.557,1.104 -1.414,1.594 -2.041,1.594 l -0.156,0 -0.079,-0.127 c -0.027,-0.032 -2.306,-3.446 -5.427,-8.864 -0.628,0.101 -1.28,0.155 -1.934,0.155 -10.689,0 -19.799,-13.515 -22.29,-17.601 -6.03,-5.915 -12.513,-9.598 -16.924,-9.598 -2.894,0 -4.605,1.694 -4.959,4.862 0,2.15 0,5.384 1.9,7.475 3.296,0.021 6.665,1.056 11.651,3.601 1.141,1.125 2.322,2.317 3.396,4.54 1.471,1.469 2.091,3.445 1.513,4.858 -0.437,1.076 -1.513,1.682 -3.007,1.682 -6.11,0 -17.041,-7.643 -21.413,-17.037 -3.09,-3.395 -8.29,-7.451 -11.865,-9.255 -1.174,-0.563 -2.106,-0.864 -2.78,-0.864 -0.437,0 -0.739,0.127 -0.934,0.397 -0.872,1.182 0.34,4.788 0.976,6.697 1.699,5.091 4.041,9.573 6.52,14.321 0.859,1.633 1.718,3.296 2.536,4.957 0.67,1.007 0.861,1.652 0.597,2.139 -0.187,0.341 -0.556,0.52 -1.13,0.52 -0.584,0 -1.349,-0.179 -2.16,-0.35 C 1.679,92.623 0.837,92.42 0,92.361 c -2.479,-1.24 -4.938,-3.121 -7.537,-5.107 -1.729,-1.323 -3.751,-2.842 -5.859,-4.296 6.704,13.42 14.297,28.462 23.175,41.79 5.322,9.594 12.07,20.217 24.785,24.834 2.809,0.811 5.393,1.211 7.697,1.211 5.246,0 9.32,-2.173 12.101,-6.451 0.106,-0.147 0.346,-0.497 0.422,-0.497 l 0.117,-0.371 c 0.164,-0.307 0.35,-0.617 0.535,-0.931 l 0.127,-0.248 c 0.075,-0.142 0.143,-0.306 0.241,-0.35 l 0.381,-0.753 0,0.006 0.062,-0.15 0.119,0.602 0.116,-0.025 0.085,0.32 c 1.034,3.947 0.7,7.08 -1.036,9.343 -1.79,2.323 -4.953,3.554 -9.135,3.554 -7.591,0 -17.114,-4.067 -23.699,-10.102 -5.596,-4.97 -11.079,-11.043 -16.767,-18.699 -0.201,2.224 -1.891,4.037 -3.127,4.836 l -0.054,0.104 -0.337,0.114 -0.425,0.021 0,-0.431 c 0,-7.676 -5.562,-9.828 -11.051,-10.933 -3.734,-1.238 -11.495,-1.407 -17.828,-1.407 -3.83,0 -7.99,0.063 -12.354,0.134 -4.62,0.07 -9.41,0.152 -14.123,0.152 -12.481,0 -17.617,-10.085 -19.564,-16.084 l -0.263,-0.839 c -0.618,-2.076 -0.915,-3.741 -0.986,-4.611 l -0.011,-0.576 0.233,-0.054 -0.054,-0.04 -0.097,-0.027 0.016,-0.027 -0.035,-0.025 0.264,-0.666 0.114,0.244 0.094,-0.104 0.033,0.07 0.111,-0.1 0,0.329 0.06,0.14 c 0.064,0.095 5.735,11.376 12.38,16.905 4.531,3.007 16.472,3.459 23.195,3.459 1.392,0 2.626,-0.022 3.794,-0.036 l 0.422,0.025 -28.18,-46.37 0.025,-0.97 c -1.188,-3.574 -1.205,-6.22 2.568,-7.466 2.244,-0.898 5.174,-1.345 8.729,-1.345 3.118,0 6.675,0.349 10.031,1.007 0.541,0.094 1.04,0.198 1.44,0.317 l 0.578,0.101 0.865,0.251 -0.592,0.25 0.258,0.367 -0.612,0 c -4.345,0 -8.85,0 -10.948,3.144 -1.188,2.373 0.394,6.067 1.112,7.518 l 25.98,43.086 c 6.75,0 15.941,0.017 22.879,2.357 0.03,0.009 0.077,0.038 0.117,0.05 -11.82,-16.876 -22.599,-36.833 -31.659,-54.362 0,-2.003 2.266,-4.677 3.972,-4.677 0.662,0 1.199,0.366 1.536,1.038 2.039,4.093 7.234,14.049 11.316,18.125 5.383,5.377 8.319,7.306 9.377,7.306 l 0.002,0 c 0.019,-0.015 0.327,-0.583 -1.06,-3.332 -0.526,-1.07 -1.061,-2.089 -1.579,-3.053 l -0.123,-0.198 c -1.694,-3.183 -3.163,-5.927 -3.939,-9.214 -2.016,-2.693 -3.409,-6.734 -2.137,-9.277 0.731,-1.433 2.137,-2.167 4.21,-2.167 0.888,0 1.898,0.134 3.052,0.418 C 0,61.949 4.973,66.244 7.365,68.59 l 0.197,0.186 0.52,0.535 C 8.579,69.819 9.025,70.317 9.44,70.8 9.044,69.407 8.861,68.112 8.861,66.936 8.396,64.608 8.626,62.857 9.566,61.711 c 0.81,-0.983 2.069,-1.473 3.76,-1.473 0.899,0 1.884,0.14 2.861,0.389 3.57,0 7.045,1.332 10.124,2.499 0.91,0.353 1.776,0.684 2.701,1.02 1.956,1.461 4.817,3.662 7.352,6.018 0.085,0.08 0.148,0.139 0.229,0.208 -0.674,-1.321 -1.203,-2.501 -1.515,-3.412 -0.724,-2.538 -0.593,-4.571 0.362,-5.848 0.747,-0.98 1.948,-1.502 3.469,-1.502 1.904,0 4.179,0.853 6.126,2.302 1.61,1.628 3.205,3.719 4.911,5.939 1.224,1.601 2.611,3.391 4.108,5.151 C 49.068,63.228 43.88,53.916 37.396,43.087 l -0.915,-1.95 c -2.198,0.363 -4.568,0.757 -7.079,1.204 l -0.284,0.052 C 18.686,44.188 5.722,46.42 -6.563,46.42 c -15.773,0 -27.1,-3.656 -34.66,-11.213 -4.29,-5.71 -7.967,-12.336 -5.791,-22.048 1.64,-11.534 13.507,-19.589 28.883,-19.589 6.51,0 13.32,1.524 19.676,4.39 13.088,5.384 25.99,18.773 39.478,40.884 3.165,-0.46 6.252,-0.684 9.177,-0.684 22.387,0 30.598,13.112 32.606,17.268 0,0.688 -0.311,1.325 -0.621,1.932 -0.184,0.385 -0.364,0.792 -0.53,1.288 m 295.585,19.86 c -3.323,-4.95 -6.361,-8.367 -9.081,-10.173 -1.531,-1.546 -3.309,-2.583 -4.403,-2.583 -0.359,0 -0.616,0.106 -0.785,0.34 -0.262,0.35 -0.564,1.366 0.31,3.997 1.082,3.232 4.386,8.887 7.917,12.4 2.927,3.935 7.616,5.241 11.872,6.297 -1.986,-2.547 -3.951,-6.476 -5.83,-10.278 m -31.444,2.087 c -1.48,-3.104 -4.55,-9.553 -8.366,-13.365 -2.721,-2.052 -4.132,-2.451 -4.833,-2.451 -0.331,0 -1.21,0 -1.245,2.201 -0.818,2.524 2.602,8.886 5.145,13.57 0.638,1.192 1.216,2.268 1.57,3.038 1.281,1.251 4.58,4.142 8.29,4.391 l 0.046,-6.09 c -0.147,-0.323 -0.358,-0.742 -0.607,-1.294 m -99.181,0.016 c -1.491,-3.102 -4.555,-9.558 -8.376,-13.381 -2.238,-1.672 -3.811,-2.451 -4.973,-2.451 -1.038,0 -1.717,0.649 -2.222,2.053 0,3.251 4.436,12.22 7.839,16.756 1.998,1.985 5.066,4.142 7.251,4.386 0.271,-1.124 1.038,-4.521 1.085,-6.085 -0.15,-0.312 -0.343,-0.727 -0.604,-1.278 M 117.719,80.575 c -1.475,-3.107 -4.546,-9.541 -8.349,-13.345 -2.709,-2.052 -4.12,-2.451 -4.821,-2.451 -0.337,0 -1.219,0 -1.244,2.218 -0.835,2.507 2.626,8.919 5.15,13.588 0.639,1.172 1.218,2.242 1.563,3.003 1.278,1.251 4.592,4.142 8.288,4.391 l 0.054,-6.09 c -0.156,-0.323 -0.366,-0.742 -0.641,-1.314 m 286.5,0.156 -0.639,0.275 -0.141,-0.227 c -0.327,-0.497 -8.089,-12.513 -18.036,-16.927 -1.105,-0.543 -2.18,-0.848 -3.104,-0.848 -1.047,0 -1.859,0.38 -2.282,1.056 -0.534,0.858 -0.414,2.184 0.363,3.762 2.048,6.139 6.839,14.076 10.341,19.874 l 0.792,1.445 3.502,0.07 0.764,0.865 0.158,0.221 0.2,0.268 0.476,0.72 -3.396,-0.079 -0.953,-0.049 c 0.304,0.428 0.52,0.837 0.658,1.112 0.193,0.411 0.427,0.837 0.813,1.401 0.05,0.071 0.096,0.146 0.188,0.351 l 0.123,0.271 0.059,0.51 -0.614,-0.14 c -0.404,-0.066 -5.731,-1.125 -6.869,-1.179 l -0.119,0 -0.096,-0.081 c -0.182,-0.203 -1.064,-1.133 -1.12,-2.134 -4.827,-0.07 -8.801,-1.71 -13.397,-3.622 l -2.509,-1.022 c -3.519,-2.324 -7.061,-5.912 -9.183,-8.028 -0.035,-0.031 -0.083,-0.1 -0.138,-0.183 -1.109,-0.335 -2.117,-0.517 -2.978,-0.517 -2.775,0 -4.507,1.702 -5.184,4.978 -1.159,5.806 0.111,8.942 1.108,9.974 l 0.524,1.186 c 0.443,0.861 0.535,1.057 0.521,1.303 l -0.099,0.222 -0.16,0.092 0.006,0.008 -0.217,0.256 -0.236,-0.233 c -0.005,-0.023 -1.026,-1.003 -2.079,-1.053 l -0.109,0 -0.093,-0.089 c -0.325,-0.333 -0.841,-0.637 -1.712,-0.968 l -0.219,0.21 -0.122,0 c -0.25,0 -0.487,-0.148 -0.791,-0.476 -0.63,-0.654 -1.467,-2.149 -1.673,-3.19 -2.14,-0.281 -11.768,-2.826 -18.345,-11.608 -0.683,-1.017 -1.28,-2.024 -1.785,-2.919 -2.715,-2.722 -8.388,-8.367 -12.852,-10.604 -1.162,-0.563 -2.132,-0.864 -2.861,-0.864 -0.636,0 -1.086,0.222 -1.338,0.691 -0.741,1.373 0.134,4.39 1.456,6.403 2.433,7.25 4.696,12.71 9.074,19.278 0.606,0.911 0.766,1.552 0.518,2.051 -0.228,0.414 -0.691,0.608 -1.41,0.608 -0.798,0 -1.894,-0.265 -2.764,-0.469 -0.588,-0.139 -1.094,-0.263 -1.498,-0.305 -4.315,-1.717 -7.903,-4.648 -11.409,-7.529 -0.613,-0.504 -1.224,-0.998 -1.818,-1.509 6.355,12.719 14.137,28.201 21.835,41.408 6.686,10.004 13.587,20.36 24.777,24.834 2.808,0.811 5.478,1.211 7.945,1.211 3.493,0 8.329,-0.93 11.47,-5.354 0.083,-0.106 0.154,-0.227 0.327,-0.522 0.361,-0.612 0.696,-1.245 1.077,-2.048 0.134,-0.308 0.26,-0.61 0.414,-0.884 l 0.106,0.004 -0.049,-0.011 0.339,-0.99 0.076,0.264 0.041,-0.083 0.103,0.453 0.052,-0.037 0.11,0.36 c 1.04,3.956 0.692,7.092 -1.049,9.36 -1.777,2.308 -4.871,3.537 -8.974,3.537 -7.54,0 -16.667,-4.071 -22.721,-10.102 -18.177,-16.165 -34.776,-44.301 -48.848,-69.351 -4.777,-4.609 -10.547,-9.426 -17.173,-10.404 -0.869,-0.436 -1.691,-0.651 -2.456,-0.651 -1.026,0 -1.926,0.416 -2.588,1.203 -1.2,1.423 -1.585,3.87 -1.079,6.881 1.583,8.007 4.456,12.745 8.785,14.46 0.737,0.259 1.454,0.376 2.111,0.376 1.862,0 4.092,-0.975 4.147,-5.608 l 0.199,-0.284 0.283,-0.036 0.127,-0.077 0.095,0.104 0.125,0.009 0.089,0.074 c 1.007,0.997 2.041,2.017 3.102,2.085 l 0.145,0.007 0.09,0.106 c 1.509,2.033 1.901,4.292 1.02,6.051 -0.686,1.371 -2.045,2.199 -3.623,2.199 -0.851,0 -1.707,-0.228 -2.512,-0.632 -6.128,-2.041 -11.93,-6.16 -16.224,-11.534 -2.188,-1.21 -4.101,-1.822 -5.666,-1.822 -2.554,0 -4.17,1.702 -4.833,4.978 -1.143,5.752 0.136,8.971 1.069,9.974 l 0.078,0.085 0,0.115 c 0,0.745 0.13,1.223 0.397,1.614 l 0.645,0.629 0.346,0.531 -0.748,0 c -0.044,0 -0.486,-0.011 -0.789,-0.335 l -1.843,-0.947 c -0.664,-0.654 -1.875,-0.89 -2.587,-1.038 l -0.114,-0.019 c -0.09,0.106 -0.21,0.187 -0.354,0.187 l -0.381,0.016 -0.106,-0.106 c -0.403,-0.435 -1.009,-2.524 -1.009,-3.464 -2.19,-0.293 -11.774,-2.88 -18.312,-11.608 -1.927,-2.893 -3.378,-5.641 -4.277,-8.122 -3.324,-4.059 -9.365,-7.976 -12.555,-8.788 -0.412,-0.128 -0.777,-0.194 -1.074,-0.194 -1.571,0 -1.721,1.905 -1.738,4.133 1.233,3.686 3.49,7.067 5.672,10.329 1.82,2.72 3.547,5.281 4.479,7.722 1.215,1.208 1.278,1.376 1.216,2.772 l 0,0.114 -0.074,0.081 c -0.63,0.626 -1.254,0.951 -1.866,1.26 -0.485,0.224 -0.986,0.496 -1.423,0.825 -0.062,0.818 -0.659,0.856 -0.783,0.856 -0.464,0 -0.944,-0.408 -1.192,-0.656 -1.234,-1.221 -2.428,-3.608 -2.368,-4.67 -1.039,-2.092 -8.949,-14.632 -12.322,-16.896 -0.928,-0.452 -1.695,-0.695 -2.278,-0.695 -1.418,0 -1.569,1.611 -1.611,3.442 0.542,1.109 2.851,4.887 5.18,8.671 2.104,3.414 4.482,7.256 4.972,8.316 0.369,0.357 0.511,0.827 0.432,1.345 -0.235,1.534 -2.343,3.208 -4.189,3.981 l -0.197,0.086 -1.393,-1.426 c -1.084,-2.172 -6.723,-11.201 -11.408,-18.247 -0.407,-0.823 -0.746,-1.617 -0.912,-2.198 -2.794,-2.359 -5.767,-4.449 -7.941,-5.536 -1.59,-0.591 -2.86,-0.892 -3.774,-0.892 -0.698,0 -1.171,0.175 -1.429,0.523 -0.722,1.042 0.204,3.566 0.885,5.433 0.152,0.397 0.297,0.789 0.418,1.194 1.129,4.489 8.022,13.663 11.358,18.148 0.478,0.933 0.478,1.779 0.041,2.524 -0.729,1.186 -2.513,1.603 -3.898,1.603 -0.786,0 -1.223,-0.434 -1.5,-0.698 -0.252,-0.277 -0.424,-0.435 -1.086,-0.547 l -1.363,-1.072 c -3.694,-2.97 -7.379,-5.929 -11.037,-8.898 l -2.062,-1.661 -0.889,-0.773 c 0.098,0.168 0.185,0.332 0.272,0.508 1.524,2.746 3.597,6.506 4.441,9.226 l 0.027,0.121 -0.047,0.112 c -0.824,1.661 -3.11,2.66 -4.855,2.66 -1.372,0 -2.387,-0.567 -2.889,-1.587 -2.47,-6.585 -5.645,-12.659 -8.075,-17.146 -2.708,-2.507 -7.223,-6.055 -13.294,-8.778 -0.538,-0.17 -1.067,-0.263 -1.595,-0.263 -1.201,0 -2.263,0.487 -2.918,1.333 -0.544,0.706 -1.085,1.946 -0.587,3.965 1.979,4.629 4.354,8.498 6.661,12.262 1.134,1.86 2.119,3.549 3.036,5.215 0.389,0.693 0.75,1.404 1.076,2.141 l 0.212,0.383 c 0.123,0.204 0.232,0.426 0.238,0.579 l 0.459,1.001 -0.586,-0.377 -0.055,0.17 -0.343,-0.224 c -1.74,-1.048 -5.834,-3.355 -6.819,-3.39 -1.182,-0.598 -3.433,-3.568 -6.06,-8.015 -2.436,-1.257 -4.559,-1.897 -6.303,-1.897 -2.761,0 -4.506,1.702 -5.164,4.978 -1.157,5.796 0.112,8.942 1.104,9.974 l 0.535,1.236 0.131,0.379 0.286,0.735 -0.111,0.054 0.086,0 -0.138,0.059 0.098,0 -0.227,0.128 0.181,0.116 -0.158,0.462 -0.355,-0.335 c -0.379,-0.371 -1.255,-1.02 -2.065,-1.053 l -0.123,0 -0.079,-0.089 c -0.322,-0.333 -0.87,-0.637 -1.733,-0.968 l -0.206,0.21 -0.131,0 c -0.242,0 -0.488,-0.148 -0.787,-0.476 -0.614,-0.654 -1.465,-2.149 -1.667,-3.19 C 116.348,89.835 106.721,87.29 100.13,78.508 98.731,76.407 97.559,74.299 96.711,72.392 94.505,70.317 90.784,67.344 85.615,65.026 84.886,64.843 84.179,64.75 83.511,64.75 c -1.565,0 -2.775,0.517 -3.342,1.435 -0.587,0.939 -0.474,2.271 0.329,3.863 2.256,5.269 4.57,9.67 6.833,13.956 0.81,1.526 1.605,3.066 2.367,4.647 l 0.131,0.262 c 0.187,0.357 0.353,0.718 0.605,1.334 l 0.132,0.381 -0.104,0.078 0.078,0 0.398,0.997 -0.337,-0.239 0,0.079 -0.235,-0.193 -0.025,0.079 -0.344,-0.261 c -0.047,-0.047 -4.471,-3.319 -6.681,-3.36 l -0.129,-0.01 -0.088,-0.084 C 81.956,86.563 75.037,75.069 72.718,69.306 c -1.107,-2.785 -1.168,-5.129 -0.173,-6.59 0.74,-1.086 2.031,-1.664 3.723,-1.664 1.134,0 2.449,0.26 3.851,0.725 4.004,0.663 8.657,2.911 13.445,6.51 0.769,0.556 1.467,1.115 2.1,1.675 -0.652,-1.8 -0.988,-3.459 -1.004,-4.923 0,-0.617 0.069,-1.187 0.203,-1.674 l 0.145,-0.526 c 0.023,-0.143 0.067,-0.318 0.148,-0.466 0.612,-1.132 1.682,-1.746 3.115,-1.746 4.27,0 12.552,2.058 20.035,15.757 0.699,1.252 1.23,2.312 1.657,3.334 l 0.01,0.045 c 1.203,-1.255 3.997,-3.883 8.507,-3.883 1.633,0 3.317,0.383 5.016,1.122 0.049,0.029 0.101,0.066 0.151,0.091 -1.69,-2.975 -3.099,-5.781 -3.904,-7.787 -0.993,-2.509 -0.983,-4.711 0.039,-6.234 0.895,-1.323 2.46,-2.02 4.507,-2.02 1.218,0 2.565,0.26 3.967,0.725 5.793,0.962 11.609,5.02 14.558,7.349 0.285,0.229 0.574,0.461 0.849,0.693 -0.68,-1.222 -1.365,-2.422 -2.046,-3.615 l -0.216,-0.518 c 0,-1.935 1.582,-5.662 3.75,-5.662 0.587,0 1.148,0.246 1.721,0.857 1.425,2.383 2.428,4.689 3.404,6.91 1.365,3.141 2.549,5.846 4.501,7.798 5.157,5.157 10.813,9.368 12.85,9.368 l 0.03,0 c 0.026,-0.023 0.301,-0.562 -1.133,-3.068 -0.783,-1.599 -1.846,-3.173 -2.991,-4.858 -2.088,-3.097 -4.264,-6.314 -5.004,-10.034 -0.658,-1.971 -0.549,-3.769 0.306,-4.967 0.774,-1.082 2.05,-1.619 3.818,-1.619 0.636,0 1.367,0.077 2.152,0.235 3.948,0.876 7.932,2.719 11.533,5.333 0.753,0.515 1.451,1.075 2.078,1.656 -0.294,-1.703 -0.124,-3.086 0.526,-4.136 0.804,-1.287 2.294,-2.004 4.192,-2.004 0.708,0 1.459,0.093 2.228,0.292 2.297,0.765 4.84,2.59 7.767,5.529 0.101,0.081 0.187,0.174 0.282,0.258 -0.354,-1.491 -0.443,-2.888 -0.298,-4.244 0.09,-0.645 0.238,-1.215 0.434,-1.754 l 0.237,-0.481 c 0.073,-0.214 0.172,-0.468 0.341,-0.672 1.045,-1.463 2.803,-2.235 5.073,-2.235 0.641,0 1.338,0.051 2.131,0.198 4.122,1.361 8.88,5.533 11.348,7.891 0.394,0.383 0.76,0.756 1.092,1.094 -0.454,-2.118 -0.367,-3.831 0.252,-5.004 0.607,-1.126 1.687,-1.74 3.117,-1.74 4.253,0 12.527,2.046 19.993,15.704 0.728,1.305 1.253,2.385 1.679,3.387 l 0.023,0.045 c 1.206,-1.227 4.013,-3.883 8.517,-3.883 1.108,0 2.207,0.186 3.447,0.587 -0.872,-1.317 -1.573,-2.533 -2.144,-3.666 -1.99,-3.297 -2.388,-6.458 -1.138,-8.68 1.292,-2.282 4.193,-3.482 8.427,-3.482 l 0.015,0 c 4.7,0.517 9.582,2.554 14.529,6.06 l 0.244,0.201 c 0.886,0.64 1.768,1.29 2.64,2.016 0.702,0.588 1.401,1.173 2.09,1.781 0,0 0.821,0.774 0.909,0.861 l -2.583,-4.598 -1.275,-2.411 c 0,-1.966 2.864,-4.677 4.958,-4.677 0.749,0 1.341,0.366 1.673,1.038 4.258,8.497 8.491,15.281 11.314,18.125 1.716,1.703 6.738,6.723 8.472,7.209 -0.037,-0.328 -0.26,-1.208 -1.315,-3.338 -0.819,-3.274 -2.3,-6.041 -3.867,-8.972 -0.597,-1.112 -1.186,-2.24 -1.798,-3.46 -1.492,-2.99 -2.349,-7.062 -0.911,-9.397 0.822,-1.322 2.229,-1.977 4.187,-1.977 0.884,0 1.899,0.134 3.04,0.418 6.927,2.597 12.494,7.814 16.025,11.839 -1.698,-3.969 -2.074,-7.098 -1.064,-8.99 0.608,-1.126 1.682,-1.74 3.108,-1.74 4.277,0 12.556,2.058 20.032,15.766 0.646,1.148 1.176,2.223 1.628,3.268 l 0.04,0.102 c 1.192,-1.245 3.998,-3.883 8.502,-3.883 0.579,0 1.219,0.088 2.062,0.288 -1.393,-2.41 -5.787,-10.449 -4.463,-13.653 0.393,-0.939 1.231,-1.438 2.396,-1.438 0.823,0 1.838,0.242 3.001,0.71 2.531,0.63 7.593,2.461 12.749,7.469 l 0.229,0.219 c 0.567,0.573 1.156,1.194 1.746,1.837 0.105,0.123 0.197,0.246 0.311,0.357 -0.642,-1.425 -1.271,-2.785 -1.962,-3.54 -0.9,-2.728 -0.795,-4.894 0.31,-6.428 1.095,-1.524 3.156,-2.355 5.822,-2.355 2.961,0 6.301,1.004 8.306,2.507 5.343,3.571 10.676,9.2 14.982,13.729 1.193,1.245 2.323,2.448 3.342,3.738 l 0.181,0.243 -1.328,1.168 z m -253.597,20.971 0.101,0 c 1.214,0 3.716,0 4.902,2.414 1.952,1.931 2.33,4.574 1.848,5.742 -0.166,0.39 -0.43,0.659 -0.774,0.73 -0.381,0.331 -0.853,0.516 -1.428,0.516 -1.306,0 -3.054,-1.047 -4.985,-2.999 -0.837,-1.677 -1.703,-3.412 -1.249,-4.807 0.225,-0.668 0.716,-1.175 1.585,-1.596 m -58.565,0.427 c 0.074,-0.104 0.161,-0.238 0.284,-0.337 l 0.093,-0.09 0.146,0 c 1.174,0 3.622,0 6.151,2.533 0.955,1.933 1.187,4.715 0.491,5.831 -0.164,0.289 -0.385,0.462 -0.678,0.522 -0.375,0.331 -0.853,0.516 -1.392,0.516 -1.397,0 -2.991,-1.222 -3.794,-2.869 -1.681,-1.697 -2.024,-3.189 -2.014,-4.132 0,-0.551 0.177,-1.109 0.522,-1.662 l 0.191,-0.312 z" /></g></g></g></g></svg>