<?xml version="1.0" encoding="utf-8"?>
<!-- Generator: Adobe Illustrator 15.0.0, SVG Export Plug-In . SVG Version: 6.00 Build 0)  -->
<!DOCTYPE svg PUBLIC "-//W3C//DTD SVG 1.1//EN" "http://www.w3.org/Graphics/SVG/1.1/DTD/svg11.dtd">
<svg version="1.1" id="Layer_1" xmlns="http://www.w3.org/2000/svg" xmlns:xlink="http://www.w3.org/1999/xlink" x="0px" y="0px"
	 width="15px" height="30px" viewBox="0 0 15 30" enable-background="new 0 0 15 30" xml:space="preserve">
<path fill="#E6E6E5" d="M10.782,11.83c-0.128,0-0.257-0.039-0.365-0.118L7.498,9.575l-2.917,2.112
	c-0.218,0.157-0.513,0.155-0.729-0.003c-0.217-0.157-0.307-0.438-0.222-0.693l1.11-3.359L1.832,5.575
	C1.611,5.419,1.518,5.138,1.599,4.881c0.082-0.257,0.32-0.431,0.59-0.431h3.606l1.115-3.43c0.166-0.511,1.012-0.511,1.178,0
	l1.115,3.43h3.605c0.271,0,0.51,0.174,0.592,0.431c0.08,0.258-0.014,0.538-0.233,0.694l-2.908,2.053l1.112,3.391
	c0.084,0.256-0.008,0.535-0.225,0.693C11.038,11.791,10.91,11.83,10.782,11.83 M7.5,8.189c0.128,0,0.257,0.041,0.366,0.118
	l1.728,1.267L8.939,7.579C8.855,7.32,8.949,7.037,9.171,6.88l1.688-1.191H8.754c-0.268,0-0.506-0.172-0.589-0.428L7.5,3.215
	L6.835,5.259C6.752,5.516,6.514,5.688,6.246,5.688H4.138l1.691,1.195C6.052,7.042,6.144,7.326,6.06,7.585L5.407,9.56l1.729-1.252
	C7.245,8.229,7.373,8.189,7.5,8.189"/>
<polygon fill="#E6E6E5" points="7.712,1.504 8.967,5.362 13.023,5.362 9.74,7.679 10.994,11.504 7.712,9.102 4.43,11.479 
	5.684,7.683 2.402,5.362 6.458,5.362 "/>
<path fill="#FFC808" d="M10.782,27.693c-0.128,0-0.257-0.039-0.365-0.119l-2.919-2.137L4.581,27.55
	c-0.218,0.157-0.513,0.155-0.729-0.002c-0.218-0.157-0.308-0.438-0.223-0.694l1.11-3.359l-2.908-2.057
	c-0.221-0.155-0.314-0.437-0.233-0.693c0.082-0.258,0.32-0.432,0.591-0.432h3.606l1.115-3.43c0.166-0.511,1.012-0.511,1.178,0
	l1.115,3.43h3.607c0.27,0,0.508,0.174,0.59,0.432c0.08,0.258-0.014,0.538-0.233,0.693l-2.909,2.054l1.112,3.39
	c0.084,0.256-0.007,0.536-0.226,0.694C11.038,27.654,10.91,27.693,10.782,27.693 M7.5,24.053c0.128,0,0.257,0.041,0.366,0.119
	l1.728,1.266l-0.654-1.996c-0.084-0.258,0.01-0.541,0.23-0.698l1.688-1.192H8.754c-0.268,0-0.506-0.172-0.589-0.428L7.5,19.078
	l-0.665,2.045c-0.083,0.256-0.321,0.428-0.589,0.428H4.138l1.691,1.196c0.223,0.158,0.316,0.442,0.23,0.701l-0.652,1.976
	l1.729-1.252C7.245,24.092,7.373,24.053,7.5,24.053"/>
<polygon fill="#FFC808" points="7.246,17.357 8.5,21.217 12.559,21.217 9.273,23.531 10.527,27.359 7.246,24.955 3.964,27.334 
	5.218,23.537 1.936,21.217 5.992,21.217 "/>
</svg>
